<?xml version="1.0" encoding="UTF-8" standalone="no"?>
<!DOCTYPE svg PUBLIC "-//W3C//DTD SVG 1.1//EN" "http://www.w3.org/Graphics/SVG/1.1/DTD/svg11.dtd">
<svg xmlns="http://www.w3.org/2000/svg" version="1.1" viewBox="0.00 0.00 1024.00 1024.00">
<rect fill="#ffffff" x="-7.59" y="-14.98" transform="translate(511.53,276.90) rotate(0.5)" width="15.18" height="29.96" rx="7.20"/>
<path fill="#ffffff" d="
  M 439.89 637.16
  L 440.15 636.44
  L 439.56 636.92
  L 437.09 639.93
  L 436.31 640.46
  L 434.19 640.92
  L 432.50 641.07
  L 327.25 641.10
  L 319.58 640.72
  L 311.82 639.54
  L 304.15 637.57
  L 296.72 634.88
  L 289.45 631.42
  L 282.59 627.30
  L 276.21 622.58
  L 270.38 617.30
  L 266.96 613.70
  L 263.79 610.00
  L 260.87 606.22
  L 258.22 602.35
  L 255.82 598.38
  L 253.67 594.33
  L 251.78 590.19
  L 250.15 585.95
  L 250.15 585.95
  L 250.15 585.95
  L 250.15 585.95
  L 250.15 585.95
  L 248.71 581.38
  L 247.55 576.71
  L 246.67 571.94
  L 246.08 567.07
  L 245.78 562.10
  L 245.76 557.03
  L 246.03 551.85
  L 246.58 546.58
  L 247.26 542.39
  L 248.18 538.26
  L 249.62 533.40
  L 251.42 528.62
  L 253.57 523.95
  L 256.09 519.36
  L 258.45 515.58
  L 260.94 511.98
  L 263.55 508.54
  L 266.30 505.28
  L 269.17 502.19
  L 272.18 499.27
  L 275.31 496.53
  L 278.57 493.96
  L 278.57 493.96
  L 278.57 493.96
  L 282.38 491.28
  L 286.35 488.81
  L 290.48 486.56
  L 294.77 484.53
  L 299.23 482.72
  L 303.84 481.12
  L 308.62 479.74
  L 313.56 478.57
  L 314.34 478.28
  L 315.00 477.77
  L 315.48 477.08
  L 315.73 476.29
  L 316.74 470.84
  L 318.00 465.48
  L 319.52 460.22
  L 321.30 455.06
  L 321.30 455.06
  L 321.30 455.06
  L 321.30 455.06
  L 323.69 449.17
  L 326.42 443.42
  L 330.50 436.10
  L 335.04 429.24
  L 340.03 422.83
  L 345.48 416.87
  L 345.48 416.87
  L 350.53 412.12
  L 355.91 407.70
  L 361.62 403.62
  L 367.68 399.87
  L 372.31 397.43
  L 377.38 395.19
  L 383.21 392.99
  L 391.49 390.19
  L 392.47 389.74
  L 393.25 389.10
  L 393.25 389.10
  L 394.01 387.83
  L 397.87 378.52
  L 402.35 369.68
  L 407.44 361.34
  L 413.15 353.47
  L 413.15 353.47
  L 413.15 353.47
  L 413.15 353.47
  L 417.69 348.05
  L 422.56 342.88
  L 427.75 337.97
  L 433.27 333.31
  L 437.76 329.89
  L 442.38 326.68
  L 447.13 323.68
  L 452.00 320.91
  L 456.98 318.35
  L 462.06 316.02
  L 467.24 313.92
  L 472.51 312.05
  L 477.80 310.45
  L 483.15 309.08
  L 488.57 307.95
  L 494.04 307.06
  L 499.53 306.43
  L 505.07 306.06
  L 510.53 305.93
  L 516.02 306.06
  L 521.57 306.42
  L 527.03 307.00
  L 532.41 307.79
  L 537.71 308.80
  L 542.91 310.01
  L 548.04 311.45
  L 553.07 313.09
  L 558.03 314.95
  L 558.03 314.95
  L 558.03 314.95
  L 558.03 314.95
  L 558.03 314.95
  L 565.88 318.41
  L 573.50 322.43
  L 580.90 327.02
  L 588.08 332.16
  L 592.16 335.42
  L 596.06 338.79
  L 599.79 342.28
  L 603.34 345.89
  L 606.71 349.61
  L 609.92 353.45
  L 612.94 357.41
  L 615.79 361.48
  L 615.79 361.48
  L 618.72 366.10
  L 621.44 370.85
  L 623.95 375.75
  L 626.25 380.78
  L 628.33 385.96
  L 630.21 391.28
  L 631.87 396.74
  L 633.32 402.34
  L 633.82 403.59
  L 634.96 404.88
  L 636.68 405.83
  L 640.48 407.63
  L 646.66 410.99
  L 652.05 414.14
  L 656.26 416.89
  L 662.80 421.83
  L 668.84 427.15
  L 674.39 432.85
  L 679.44 438.93
  L 679.44 438.93
  L 684.01 445.39
  L 688.07 452.22
  L 691.65 459.44
  L 694.73 467.04
  L 694.85 467.31
  L 694.85 467.31
  L 695.28 467.82
  L 695.92 468.21
  L 697.84 468.64
  L 702.86 469.23
  L 708.50 470.25
  L 714.32 471.62
  L 718.79 473.01
  L 723.74 474.99
  L 728.49 477.17
  L 733.04 479.55
  L 737.38 482.14
  L 741.52 484.92
  L 745.46 487.90
  L 749.19 491.08
  L 752.71 494.47
  L 752.71 494.47
  L 752.71 494.47
  L 755.68 497.64
  L 758.48 500.98
  L 761.12 504.47
  L 763.61 508.12
  L 765.93 511.93
  L 768.08 515.90
  L 770.08 520.03
  L 771.92 524.31
  L 773.36 528.18
  L 774.60 532.12
  L 775.65 536.14
  L 776.50 540.21
  L 777.15 544.37
  L 777.60 548.57
  L 777.85 552.80
  L 777.88 557.04
  L 777.72 561.24
  L 777.34 565.43
  L 776.76 569.60
  L 775.98 573.74
  L 774.99 577.81
  L 773.80 581.83
  L 772.43 585.69
  L 770.87 589.48
  L 768.00 595.38
  L 764.73 601.00
  L 761.08 606.34
  L 757.07 611.38
  L 752.70 616.09
  L 748.01 620.47
  L 742.99 624.48
  L 737.68 628.12
  L 733.09 630.82
  L 728.31 633.24
  L 723.45 635.34
  L 718.43 637.15
  L 711.09 639.25
  L 704.27 640.58
  L 698.32 641.06
  L 689.76 641.17
  L 628.01 641.02
  L 613.47 641.32
  L 598.75 641.63
  L 588.06 641.47
  L 566.03 640.94
  L 559.97 641.01
  L 555.30 641.42
  L 554.83 641.57
  L 554.46 641.86
  L 549.63 646.85
  L 544.96 651.09
  L 540.46 654.59
  L 536.11 657.33
  L 529.79 660.40
  L 526.63 661.60
  L 523.47 662.59
  L 520.31 663.35
  L 517.15 663.90
  L 513.99 664.22
  L 510.84 664.32
  L 510.84 664.32
  L 510.84 664.32
  L 507.82 664.21
  L 504.80 663.91
  L 498.77 662.69
  L 492.74 660.66
  L 486.71 657.83
  L 483.53 655.87
  L 479.62 653.02
  L 475.63 649.85
  L 472.98 647.53
  L 471.28 645.72
  L 469.50 643.48
  L 465.75 637.71
  L 465.40 637.40
  L 465.10 637.76
  L 464.27 639.94
  L 463.98 640.38
  L 463.54 640.62
  L 461.50 641.07
  L 449.91 640.95
  L 440.23 640.45
  L 439.90 640.44
  L 439.16 640.55
  L 438.46 640.65
  L 438.04 640.53
  L 438.17 640.12
  L 439.89 637.16
  Z
  M 571.54 433.79
  L 573.64 429.14
  L 575.23 424.52
  L 577.48 417.23
  L 577.67 416.86
  L 578.05 416.47
  L 578.38 416.17
  L 578.69 415.76
  L 578.76 415.44
  L 578.62 415.15
  L 571.35 407.97
  L 569.99 406.49
  L 568.90 404.94
  L 568.07 403.33
  L 567.51 401.65
  L 567.51 401.65
  L 567.32 400.75
  L 567.10 398.56
  L 567.19 396.57
  L 567.60 394.80
  L 568.31 393.24
  L 569.18 392.01
  L 570.22 390.98
  L 570.22 390.98
  L 570.22 390.98
  L 571.73 389.97
  L 573.49 389.26
  L 576.36 388.34
  L 577.82 387.66
  L 579.95 385.63
  L 580.77 384.44
  L 581.41 383.16
  L 581.85 381.83
  L 582.07 380.46
  L 582.06 379.17
  L 581.84 377.89
  L 581.23 376.31
  L 580.22 374.81
  L 579.48 374.15
  L 578.52 373.65
  L 575.89 373.11
  L 569.88 372.91
  L 564.68 373.21
  L 564.27 373.39
  L 564.13 373.81
  L 563.89 396.54
  L 564.06 416.99
  L 563.78 419.44
  L 562.86 421.41
  L 562.86 421.41
  L 561.73 422.59
  L 560.23 423.50
  L 558.24 424.18
  L 556.26 424.38
  L 556.26 424.38
  L 556.26 424.38
  L 553.98 424.00
  L 551.72 422.96
  L 550.57 422.02
  L 549.56 420.42
  L 549.10 418.39
  L 548.86 412.79
  L 548.80 404.75
  L 548.91 367.25
  L 548.92 365.69
  L 549.19 362.18
  L 549.62 360.79
  L 550.49 359.69
  L 551.88 358.82
  L 553.67 358.25
  L 555.75 357.98
  L 573.50 357.95
  L 576.47 358.12
  L 579.56 358.61
  L 582.76 359.43
  L 586.08 360.57
  L 586.23 360.59
  L 586.65 360.29
  L 590.45 354.66
  L 590.57 354.18
  L 590.52 354.09
  L 589.31 352.70
  L 587.13 350.66
  L 580.34 345.25
  L 573.99 340.65
  L 567.96 336.77
  L 562.20 333.60
  L 557.34 331.29
  L 552.45 329.23
  L 547.54 327.40
  L 542.60 325.81
  L 537.64 324.46
  L 532.66 323.35
  L 527.65 322.48
  L 522.62 321.85
  L 522.62 321.85
  L 522.62 321.85
  L 522.62 321.85
  L 517.81 321.48
  L 512.98 321.32
  L 508.13 321.37
  L 503.26 321.65
  L 498.37 322.13
  L 493.45 322.84
  L 488.51 323.76
  L 483.55 324.90
  L 478.80 326.21
  L 474.20 327.71
  L 466.94 330.59
  L 459.77 334.07
  L 452.59 338.21
  L 445.33 343.05
  L 440.85 346.44
  L 440.85 346.44
  L 437.11 349.63
  L 433.54 353.01
  L 430.13 356.61
  L 426.88 360.40
  L 421.96 366.89
  L 417.56 373.59
  L 413.68 380.52
  L 410.31 387.68
  L 410.31 387.68
  L 408.34 392.62
  L 406.73 397.24
  L 405.33 401.87
  L 404.14 406.50
  L 403.16 411.13
  L 402.39 415.76
  L 401.84 420.39
  L 401.49 425.02
  L 401.36 429.65
  L 401.36 429.65
  L 401.36 429.65
  L 401.59 437.07
  L 402.37 444.49
  L 403.68 451.91
  L 405.54 459.34
  L 408.41 467.96
  L 411.98 476.23
  L 411.98 476.23
  L 411.98 476.23
  L 414.99 481.97
  L 418.36 487.53
  L 422.10 492.92
  L 426.20 498.13
  L 430.16 502.56
  L 436.05 508.54
  L 442.48 515.11
  L 446.42 519.89
  L 449.96 525.40
  L 453.37 531.98
  L 457.72 541.74
  L 459.34 545.45
  L 459.98 546.54
  L 460.83 547.32
  L 460.83 547.32
  L 461.93 547.82
  L 463.25 547.99
  L 496.75 548.09
  L 498.52 547.86
  L 500.02 547.22
  L 500.02 547.22
  L 500.43 546.93
  L 505.74 542.52
  L 510.73 537.68
  L 515.38 532.41
  L 519.71 526.71
  L 529.91 511.99
  L 534.91 504.15
  L 544.89 486.15
  L 553.77 470.56
  L 557.85 463.13
  L 561.17 456.22
  L 567.55 441.34
  L 568.98 438.86
  L 571.77 434.99
  L 571.87 434.81
  L 571.89 434.55
  L 571.84 434.40
  L 571.74 434.33
  L 571.49 434.10
  L 571.54 433.79
  Z
  M 386.95 409.68
  L 386.72 410.94
  L 386.26 411.33
  L 386.15 411.63
  L 386.40 411.85
  L 387.04 411.98
  L 387.21 411.97
  L 387.66 411.60
  L 387.92 410.97
  L 388.12 409.23
  L 388.62 407.86
  L 388.71 407.46
  L 388.29 407.44
  L 385.54 408.30
  L 383.62 409.21
  L 383.14 409.71
  L 383.80 409.94
  L 385.07 409.83
  L 386.48 409.32
  L 386.88 409.27
  L 386.95 409.68
  Z
  M 379.45 411.72
  L 379.61 411.46
  L 379.38 411.25
  L 378.63 411.19
  L 378.36 411.35
  L 378.21 411.65
  L 378.48 411.83
  L 379.36 411.78
  L 379.45 411.72
  Z
  M 375.02 413.59
  L 374.92 413.37
  L 374.82 413.27
  L 374.70 413.29
  L 370.81 415.66
  L 367.08 418.24
  L 363.04 421.43
  L 363.02 421.46
  L 363.03 421.48
  L 363.12 421.66
  L 363.13 421.69
  L 363.47 421.74
  L 366.56 419.30
  L 370.68 416.40
  L 374.98 413.73
  L 375.03 413.67
  L 375.02 413.59
  Z
  M 361.39 423.23
  L 361.39 423.23
  L 361.35 423.60
  L 361.45 423.67
  L 361.58 423.65
  L 361.67 423.58
  L 361.71 423.47
  L 361.65 423.14
  L 361.39 423.23
  Z
  M 354.48 430.01
  L 357.09 427.39
  L 358.18 425.93
  L 356.66 426.89
  L 354.65 428.67
  L 353.32 430.46
  L 352.63 431.94
  L 352.66 432.20
  L 352.89 432.32
  L 352.98 432.31
  L 353.53 431.84
  L 353.97 430.84
  L 354.13 430.45
  L 354.48 430.01
  Z
  M 357.07 428.37
  L 357.05 428.41
  L 357.25 428.69
  L 357.39 428.75
  L 357.52 428.72
  L 357.67 428.54
  L 357.67 428.50
  L 357.45 428.00
  L 357.07 428.37
  Z
  M 385.5163 431.8195
  L 385.7460 431.4322
  L 385.8199 430.5105
  L 385.6947 429.5944
  L 385.4437 429.2205
  L 385.2140 429.6078
  L 385.1401 430.5295
  L 385.2653 431.4456
  L 385.5163 431.8195
  Z
  M 356.7079 431.7366
  L 356.6590 431.3752
  L 356.2359 430.7763
  L 355.6862 430.2910
  L 355.3321 430.2034
  L 355.3810 430.5648
  L 355.8041 431.1637
  L 356.3538 431.6490
  L 356.7079 431.7366
  Z
  M 343.25 445.18
  L 343.34 445.19
  L 343.40 445.13
  L 346.30 440.58
  L 349.44 436.22
  L 352.08 432.95
  L 352.03 432.59
  L 352.00 432.58
  L 351.81 432.48
  L 351.79 432.47
  L 351.76 432.49
  L 348.31 436.76
  L 345.51 440.71
  L 342.94 444.83
  L 342.91 444.96
  L 343.02 445.06
  L 343.25 445.18
  Z
  M 572.21 433.61
  L 572.27 433.75
  L 572.57 433.68
  L 572.68 433.54
  L 572.60 433.38
  L 572.46 433.32
  L 572.29 433.40
  L 572.21 433.56
  L 572.21 433.61
  Z
  M 386.4765 444.0895
  L 386.7810 443.4820
  L 386.8799 442.0298
  L 386.7152 440.5836
  L 386.3835 439.9905
  L 386.0790 440.5980
  L 385.9801 442.0502
  L 386.1448 443.4964
  L 386.4765 444.0895
  Z
  M 341.65 447.14
  L 341.18 447.66
  L 341.27 447.98
  L 341.56 447.83
  L 341.84 447.26
  L 341.79 447.17
  L 341.72 447.12
  L 341.65 447.14
  Z
  M 339.3284 452.0936
  L 339.8221 451.7534
  L 340.5430 450.6731
  L 341.0689 449.4855
  L 341.0916 448.8864
  L 340.5979 449.2266
  L 339.8770 450.3069
  L 339.3511 451.4945
  L 339.3284 452.0936
  Z
  M 387.66 449.42
  L 387.48 449.10
  L 387.28 449.41
  L 387.21 450.57
  L 387.71 452.01
  L 387.97 452.33
  L 388.09 451.93
  L 387.66 449.42
  Z
  M 389.39 460.02
  L 389.54 459.95
  L 389.70 459.62
  L 389.65 459.02
  L 388.71 454.98
  L 388.36 453.99
  L 388.10 453.67
  L 388.10 453.68
  L 388.09 453.68
  L 388.09 453.68
  L 387.97 454.07
  L 388.05 455.12
  L 388.76 459.20
  L 388.95 459.77
  L 389.23 460.02
  L 389.23 460.02
  L 389.39 460.02
  Z
  M 339.04 454.73
  L 339.50 454.50
  L 339.63 454.29
  L 339.58 454.03
  L 339.38 453.83
  L 339.38 453.83
  L 338.55 454.00
  L 338.02 454.61
  L 334.02 465.06
  L 334.01 465.15
  L 334.10 465.20
  L 334.40 465.25
  L 334.52 465.23
  L 334.59 465.14
  L 338.35 455.30
  L 338.61 454.92
  L 339.04 454.73
  Z
  M 389.73 460.91
  L 389.48 460.95
  L 389.35 461.03
  L 389.34 461.16
  L 390.73 465.78
  L 392.37 470.30
  L 392.37 470.30
  L 394.57 475.30
  L 394.59 475.33
  L 394.61 475.33
  L 394.82 475.29
  L 394.85 475.28
  L 395.00 474.95
  L 393.32 471.12
  L 391.45 466.11
  L 389.86 460.99
  L 389.82 460.92
  L 389.73 460.91
  Z
  M 333.38 467.40
  L 333.37 468.62
  L 333.54 468.88
  L 333.73 468.63
  L 333.90 467.92
  L 333.78 467.35
  L 333.78 467.35
  L 333.78 467.35
  L 333.72 467.28
  L 333.38 467.40
  Z
  M 332.4824 472.8790
  L 332.7313 472.6034
  L 332.8096 471.9626
  L 332.6714 471.3320
  L 332.3976 471.0810
  L 332.1487 471.3566
  L 332.0704 471.9974
  L 332.2086 472.6280
  L 332.4824 472.8790
  Z
  M 331.2216 480.4330
  L 331.6072 479.6476
  L 331.9475 477.6861
  L 332.0432 475.6976
  L 331.8384 474.8470
  L 331.4528 475.6324
  L 331.1125 477.5939
  L 331.0168 479.5824
  L 331.2216 480.4330
  Z
  M 395.16 477.06
  L 395.14 477.34
  L 395.32 477.81
  L 395.73 477.86
  L 395.75 477.84
  L 395.80 477.77
  L 395.81 477.44
  L 395.58 476.98
  L 395.52 476.92
  L 395.30 476.89
  L 395.16 477.06
  Z
  M 399.06 486.73
  L 398.40 487.01
  L 398.34 487.64
  L 398.93 487.43
  L 399.06 486.73
  L 399.64 487.12
  L 399.97 487.76
  L 400.52 489.22
  L 401.27 490.53
  L 402.66 492.14
  L 402.80 492.21
  L 403.04 492.09
  L 403.05 491.83
  L 397.24 481.77
  L 396.99 481.24
  L 396.83 480.56
  L 396.71 479.69
  L 396.48 479.23
  L 396.03 479.46
  L 395.37 480.12
  L 395.21 480.44
  L 395.49 480.68
  L 396.04 480.89
  L 396.42 481.12
  L 396.69 481.50
  L 399.06 486.73
  Z
  M 327.47 492.06
  L 327.88 492.13
  L 328.02 492.08
  L 329.47 490.16
  L 330.44 488.08
  L 330.44 488.08
  L 330.83 486.58
  L 331.00 485.01
  L 331.13 480.82
  L 331.11 480.65
  L 331.04 480.80
  L 330.72 481.76
  L 330.12 484.35
  L 329.85 487.04
  L 329.20 488.85
  L 327.33 491.70
  L 327.26 491.94
  L 327.47 492.06
  Z
  M 325.13 492.47
  L 325.10 492.51
  L 325.26 492.85
  L 325.56 492.84
  L 325.82 492.58
  L 325.86 492.33
  L 325.65 492.20
  L 325.55 492.19
  L 325.13 492.47
  Z
  M 319.63 493.59
  L 319.76 493.45
  L 319.64 493.30
  L 319.12 493.24
  L 318.27 493.48
  L 318.00 493.68
  L 318.30 493.82
  L 318.47 493.85
  L 319.63 493.59
  Z
  M 322.70 493.57
  L 322.73 493.34
  L 322.68 493.31
  L 321.53 493.18
  L 321.11 493.46
  L 321.60 493.75
  L 322.11 493.77
  L 322.70 493.57
  Z
  M 316.2530 493.8186
  L 315.9462 493.6429
  L 306.2574 496.2753
  L 306.0817 496.5821
  L 306.0870 496.6014
  L 306.3938 496.7771
  L 316.0826 494.1447
  L 316.2583 493.8379
  L 316.2530 493.8186
  Z
  M 304.69 497.13
  L 304.22 497.23
  L 304.03 497.62
  L 304.47 497.75
  L 304.60 497.72
  L 304.86 497.35
  L 304.85 497.18
  L 304.69 497.13
  Z
  M 289.22 505.63
  L 289.29 505.68
  L 289.37 505.66
  L 293.98 502.82
  L 298.73 500.27
  L 298.73 500.27
  L 302.54 498.47
  L 302.65 498.12
  L 302.64 498.10
  L 302.50 497.92
  L 302.49 497.91
  L 302.45 497.91
  L 297.46 500.25
  L 297.46 500.25
  L 293.21 502.59
  L 289.09 505.18
  L 289.01 505.29
  L 289.06 505.43
  L 289.22 505.63
  Z
  M 407.68 499.02
  L 407.42 499.17
  L 407.31 499.30
  L 407.35 499.45
  L 410.65 504.04
  L 414.21 508.41
  L 418.55 513.12
  L 418.59 513.14
  L 418.61 513.13
  L 418.83 513.00
  L 418.86 512.98
  L 418.89 512.56
  L 415.57 508.95
  L 415.57 508.95
  L 411.58 504.13
  L 407.86 499.06
  L 407.78 499.00
  L 407.68 499.02
  Z
  M 286.29 508.11
  L 286.77 507.47
  L 286.79 507.18
  L 286.54 507.04
  L 286.37 507.12
  L 285.33 508.16
  L 285.14 508.54
  L 285.38 508.91
  L 286.29 509.59
  L 286.59 509.71
  L 286.59 509.41
  L 286.38 509.02
  L 286.14 508.50
  L 286.29 508.11
  Z
  M 283.19 509.63
  L 283.27 509.97
  L 283.32 509.98
  L 283.50 509.98
  L 283.84 509.58
  L 283.85 509.32
  L 283.60 509.27
  L 283.19 509.63
  Z
  M 414.39 510.28
  L 414.26 510.42
  L 414.42 510.65
  L 414.62 510.67
  L 414.82 510.56
  L 414.84 510.52
  L 414.81 510.17
  L 414.39 510.28
  Z
  M 281.43 511.42
  L 281.36 511.46
  L 281.26 511.65
  L 281.37 511.85
  L 282.28 511.81
  L 282.40 511.73
  L 282.45 511.44
  L 282.23 511.26
  L 281.43 511.42
  Z
  M 420.15 514.36
  L 420.15 514.39
  L 420.35 514.60
  L 420.63 514.50
  L 420.64 514.48
  L 420.65 514.42
  L 420.54 514.19
  L 420.23 514.02
  L 420.15 514.36
  Z
  M 278.02 515.55
  L 278.07 515.75
  L 278.27 515.70
  L 278.75 515.31
  L 278.97 514.87
  L 278.97 514.87
  L 278.97 514.53
  L 278.84 514.28
  L 278.58 514.39
  L 278.18 514.92
  L 278.02 515.55
  Z
  M 276.68 516.85
  L 276.16 516.51
  L 276.10 516.49
  L 276.03 516.54
  L 270.95 524.32
  L 269.60 526.62
  L 269.24 527.70
  L 269.24 527.70
  L 269.24 527.70
  L 270.08 526.94
  L 271.64 524.77
  L 276.71 516.99
  L 276.71 516.98
  L 276.68 516.85
  Z
  M 425.9771 522.1163
  L 425.8311 521.3480
  L 424.9639 519.8427
  L 423.8836 518.4823
  L 423.2229 518.0637
  L 423.3689 518.8320
  L 424.2361 520.3373
  L 425.3164 521.6977
  L 425.9771 522.1163
  Z
  M 419.45 518.62
  L 419.76 518.53
  L 419.77 518.34
  L 419.74 518.32
  L 419.52 518.30
  L 419.44 518.34
  L 419.33 518.53
  L 419.45 518.62
  Z
  M 431.16 526.35
  L 430.85 524.97
  L 430.25 523.77
  L 430.25 523.77
  L 429.41 522.81
  L 428.31 522.03
  L 428.17 521.99
  L 428.15 522.00
  L 427.93 522.13
  L 427.87 522.22
  L 427.92 522.31
  L 429.83 524.58
  L 430.93 526.87
  L 431.19 527.33
  L 431.54 527.62
  L 431.93 527.84
  L 433.05 528.60
  L 433.59 529.27
  L 436.58 534.07
  L 436.71 534.18
  L 436.84 534.09
  L 437.01 533.89
  L 437.01 533.89
  L 436.95 533.72
  L 433.56 528.13
  L 433.23 527.76
  L 432.87 527.55
  L 431.77 527.13
  L 431.36 526.85
  L 431.16 526.35
  Z
  M 274.36 523.42
  L 274.31 523.60
  L 274.52 523.60
  L 274.65 523.53
  L 274.69 523.47
  L 274.73 523.30
  L 274.51 523.31
  L 274.36 523.42
  Z
  M 428.34 525.53
  L 428.45 525.75
  L 428.54 525.77
  L 428.68 525.72
  L 428.71 525.58
  L 428.61 525.37
  L 428.59 525.36
  L 428.55 525.35
  L 428.34 525.53
  Z
  M 267.22 531.53
  L 267.37 531.77
  L 267.54 531.75
  L 267.68 531.60
  L 267.70 531.54
  L 267.67 531.37
  L 267.61 531.29
  L 267.38 531.25
  L 267.22 531.42
  L 267.22 531.53
  Z
  M 437.50 536.02
  L 437.62 535.98
  L 437.88 535.65
  L 437.82 535.30
  L 437.50 535.14
  L 437.37 535.17
  L 436.85 535.55
  L 436.37 536.24
  L 436.28 536.64
  L 436.69 536.58
  L 437.50 536.02
  Z
  M 264.88 537.06
  L 264.33 538.48
  L 264.21 539.12
  L 264.78 538.80
  L 265.31 538.17
  L 265.69 537.33
  L 265.88 536.43
  L 265.82 535.60
  L 265.55 535.01
  L 265.28 535.60
  L 264.88 537.06
  Z
  M 437.97 537.59
  L 438.09 537.92
  L 440.72 542.28
  L 440.86 542.40
  L 440.97 542.35
  L 441.08 542.16
  L 441.07 542.13
  L 438.33 536.78
  L 438.22 536.68
  L 438.12 536.72
  L 438.10 536.74
  L 438.01 536.96
  L 437.97 537.59
  Z
  M 263.90 541.92
  L 263.61 541.11
  L 263.28 541.91
  L 263.36 542.69
  L 263.52 542.97
  L 263.75 542.74
  L 263.91 542.10
  L 263.90 541.92
  Z
  M 441.30 542.75
  L 441.16 542.61
  L 441.11 542.79
  L 441.37 543.79
  L 441.47 543.91
  L 441.52 543.93
  L 441.71 543.92
  L 441.82 543.84
  L 441.85 543.76
  L 441.83 543.67
  L 441.30 542.75
  Z
  M 263.4303 545.2612
  L 263.2032 544.9542
  L 263.0449 544.9306
  L 262.7380 545.1577
  L 260.8697 557.6588
  L 261.0968 557.9658
  L 261.2551 557.9894
  L 261.5620 557.7623
  L 263.4303 545.2612
  Z
  M 442.33 546.59
  L 442.35 546.63
  L 442.59 546.63
  L 442.68 546.34
  L 442.56 546.21
  L 442.38 546.19
  L 442.30 546.34
  L 442.33 546.59
  Z
  M 444.36 551.61
  L 444.57 551.67
  L 444.59 551.64
  L 444.63 551.50
  L 444.52 551.28
  L 444.34 551.29
  L 444.33 551.30
  L 444.36 551.61
  Z
  M 455.05 562.49
  L 455.61 562.96
  L 455.84 563.05
  L 456.00 562.86
  L 456.10 562.61
  L 456.10 562.55
  L 456.06 562.51
  L 453.38 561.35
  L 453.38 561.35
  L 451.20 559.78
  L 449.29 557.71
  L 448.51 557.26
  L 448.16 557.27
  L 448.27 557.68
  L 449.27 558.85
  L 451.37 560.87
  L 452.45 561.66
  L 453.61 562.08
  L 453.61 562.08
  L 454.01 562.14
  L 455.05 562.49
  Z
  M 261.5021 566.0199
  L 261.7926 565.0894
  L 261.9000 562.8471
  L 261.7613 560.6065
  L 261.4579 559.6801
  L 261.1674 560.6106
  L 261.0600 562.8529
  L 261.1987 565.0935
  L 261.5021 566.0199
  Z
  M 458.51 563.74
  L 459.33 563.72
  L 459.66 563.57
  L 459.38 563.35
  L 458.52 563.21
  L 458.49 563.21
  L 458.03 563.42
  L 458.51 563.74
  Z
  M 487.8600 564.5366
  L 486.7591 564.3225
  L 484.1005 564.2300
  L 481.4417 564.3132
  L 480.3400 564.5234
  L 481.4409 564.7375
  L 484.0995 564.8300
  L 486.7583 564.7468
  L 487.8600 564.5366
  Z
  M 263.5132 574.9368
  L 263.5466 574.0169
  L 263.1721 571.8980
  L 262.6088 569.8213
  L 262.1868 569.0032
  L 262.1534 569.9231
  L 262.5279 572.0420
  L 263.0912 574.1187
  L 263.5132 574.9368
  Z
  M 511.64 574.45
  L 511.31 574.12
  L 464.25 574.12
  L 463.92 574.45
  L 463.92 574.51
  L 464.25 574.84
  L 511.31 574.84
  L 511.64 574.51
  L 511.64 574.45
  Z
  M 461.76 574.69
  L 461.88 574.49
  L 461.72 574.32
  L 461.28 574.16
  L 460.55 574.22
  L 460.24 574.43
  L 460.55 574.64
  L 461.31 574.80
  L 461.76 574.69
  Z
  M 271.04 593.50
  L 271.98 595.15
  L 273.50 597.77
  L 274.75 599.57
  L 278.59 604.01
  L 282.87 608.16
  L 282.91 608.19
  L 283.16 608.10
  L 283.17 608.09
  L 283.26 607.95
  L 283.17 607.74
  L 277.10 601.35
  L 274.85 598.38
  L 271.53 593.21
  L 268.41 587.90
  L 266.78 584.56
  L 263.81 576.26
  L 263.66 576.08
  L 263.49 576.10
  L 263.48 576.10
  L 263.29 576.29
  L 263.30 576.34
  L 265.07 582.03
  L 267.29 587.46
  L 268.34 589.38
  L 269.99 591.92
  L 271.04 593.50
  Z
  M 450.61 578.91
  L 449.89 580.42
  L 449.50 582.18
  L 449.49 583.15
  L 449.92 582.29
  L 451.24 579.32
  L 453.40 576.89
  L 454.01 576.14
  L 453.13 576.55
  L 451.68 577.63
  L 450.61 578.91
  Z
  M 449.24 577.44
  L 449.41 577.59
  L 449.47 577.61
  L 449.65 577.56
  L 449.63 577.41
  L 449.62 577.39
  L 449.34 577.28
  L 449.31 577.28
  L 449.24 577.44
  Z
  M 451.7590 588.0983
  L 451.7068 587.6732
  L 451.2405 586.9007
  L 450.6334 586.2332
  L 450.2410 586.0617
  L 450.2932 586.4868
  L 450.7595 587.2593
  L 451.3666 587.9268
  L 451.7590 588.0983
  Z
  M 459.21 591.51
  L 461.25 591.86
  L 504.70 591.71
  L 504.82 591.71
  L 505.00 591.53
  L 505.08 591.37
  L 504.91 591.32
  L 456.34 591.02
  L 456.10 591.00
  L 455.26 590.62
  L 453.04 589.12
  L 451.65 588.90
  L 452.89 589.87
  L 454.10 590.68
  L 455.12 591.35
  L 455.94 591.67
  L 456.94 591.73
  L 458.24 591.46
  L 458.70 591.40
  L 459.21 591.51
  Z
  M 506.41 591.28
  L 506.30 591.31
  L 506.21 591.50
  L 506.33 591.67
  L 506.85 591.79
  L 507.58 591.59
  L 507.84 591.36
  L 507.50 591.28
  L 506.41 591.28
  Z
  M 509.66 591.75
  L 510.23 591.60
  L 510.37 591.46
  L 510.23 591.34
  L 509.71 591.28
  L 509.25 591.51
  L 509.66 591.75
  Z
  M 274.14 595.48
  L 274.07 595.69
  L 274.21 595.87
  L 274.30 595.89
  L 274.56 595.83
  L 274.70 595.64
  L 274.55 595.34
  L 274.52 595.33
  L 274.43 595.33
  L 274.14 595.48
  Z
  M 276.29 598.27
  L 275.96 598.61
  L 276.37 598.91
  L 276.70 598.70
  L 276.81 598.47
  L 276.62 598.32
  L 276.29 598.27
  Z
  M 458.76 602.87
  L 458.28 602.89
  L 455.25 603.19
  L 454.24 603.53
  L 453.34 604.11
  L 452.37 605.30
  L 452.27 605.68
  L 452.70 605.55
  L 453.38 605.02
  L 454.07 604.49
  L 454.65 604.22
  L 459.04 603.07
  L 463.28 602.71
  L 464.06 602.62
  L 463.34 602.29
  L 462.48 602.12
  L 462.48 602.12
  L 461.09 602.19
  L 459.66 602.66
  L 459.22 602.81
  L 458.76 602.87
  Z
  M 504.26 602.46
  L 504.36 602.72
  L 504.55 602.71
  L 504.65 602.63
  L 504.69 602.54
  L 504.68 602.38
  L 504.57 602.27
  L 504.52 602.25
  L 504.26 602.46
  Z
  M 283.9775 605.8994
  L 283.7333 605.3534
  L 282.8369 604.3485
  L 281.8135 603.4734
  L 281.2625 603.2406
  L 281.5067 603.7866
  L 282.4031 604.7915
  L 283.4265 605.6666
  L 283.9775 605.8994
  Z
  M 285.06 609.20
  L 284.71 608.32
  L 283.92 608.15
  L 283.58 608.22
  L 283.58 608.22
  L 283.69 608.56
  L 284.26 609.14
  L 289.80 613.57
  L 295.71 617.34
  L 295.71 617.34
  L 301.10 620.04
  L 301.61 620.28
  L 302.64 620.71
  L 303.44 620.78
  L 304.22 620.50
  L 304.74 619.86
  L 304.74 619.71
  L 304.61 619.43
  L 304.31 619.49
  L 303.64 619.87
  L 302.91 619.92
  L 298.45 617.69
  L 290.85 613.46
  L 289.33 612.60
  L 287.86 611.37
  L 286.33 610.13
  L 285.67 609.87
  L 285.28 609.64
  L 285.06 609.20
  Z
  M 450.03 613.45
  L 450.01 611.81
  L 449.76 610.46
  L 449.49 610.00
  L 449.21 610.45
  L 448.90 612.07
  L 449.03 613.58
  L 449.66 615.04
  L 450.83 616.42
  L 453.46 618.98
  L 453.61 619.05
  L 453.75 618.98
  L 454.01 618.71
  L 454.05 618.64
  L 454.01 618.56
  L 450.74 615.28
  L 450.19 614.44
  L 450.03 613.45
  Z
  M 293.11 613.57
  L 293.27 613.88
  L 293.68 613.96
  L 293.85 613.69
  L 293.66 613.31
  L 293.24 613.29
  L 293.11 613.57
  Z
  M 449.22 618.26
  L 449.15 618.58
  L 449.52 618.76
  L 449.80 618.52
  L 449.80 618.51
  L 449.74 618.30
  L 449.55 618.15
  L 449.22 618.26
  Z
  M 456.31 619.74
  L 455.64 619.32
  L 455.07 619.13
  L 455.17 619.65
  L 455.58 620.29
  L 456.11 620.67
  L 456.11 620.67
  L 456.76 620.80
  L 471.70 620.79
  L 471.71 620.79
  L 471.72 620.76
  L 471.72 620.46
  L 471.70 620.39
  L 471.63 620.37
  L 456.95 620.03
  L 456.31 619.74
  Z
  M 452.14 620.35
  L 452.21 620.77
  L 452.40 621.00
  L 452.66 621.06
  L 452.87 620.89
  L 452.89 620.82
  L 452.81 620.23
  L 452.70 620.11
  L 452.40 620.04
  L 452.16 620.25
  L 452.14 620.35
  Z
  M 455.20 621.21
  L 455.07 621.37
  L 455.19 621.54
  L 455.41 621.62
  L 455.51 621.60
  L 455.65 621.50
  L 455.64 621.31
  L 455.48 621.15
  L 455.20 621.21
  Z
  M 306.10 621.64
  L 307.58 622.00
  L 307.98 621.82
  L 307.69 621.57
  L 306.78 621.23
  L 306.10 621.26
  L 306.03 621.30
  L 306.10 621.64
  Z
  M 309.10 622.52
  L 309.75 622.91
  L 310.18 622.95
  L 310.01 622.47
  L 309.56 622.10
  L 309.19 622.09
  L 309.11 622.12
  L 309.00 622.32
  L 309.10 622.52
  Z
  M 450.33 622.50
  L 450.40 622.64
  L 450.65 622.73
  L 450.76 622.69
  L 450.80 622.57
  L 450.80 622.55
  L 450.47 622.36
  L 450.45 622.36
  L 450.33 622.50
  Z
  M 319.97 624.51
  L 311.73 623.18
  L 311.57 623.21
  L 311.54 623.29
  L 311.56 623.39
  L 311.85 623.55
  L 319.52 625.00
  L 319.70 624.98
  L 319.82 624.86
  L 319.99 624.56
  L 320.00 624.52
  L 319.97 624.51
  Z
  M 349.06 625.52
  L 348.85 625.31
  L 328.23 625.31
  L 328.02 625.52
  L 328.02 625.52
  L 328.23 625.73
  L 348.85 625.73
  L 349.06 625.52
  L 349.06 625.52
  Z
  M 349.51 625.35
  L 349.22 625.44
  L 349.47 625.57
  L 350.40 625.73
  L 351.20 625.63
  L 351.46 625.49
  L 351.18 625.40
  L 349.51 625.35
  Z
  M 412.6800 625.5020
  L 412.4696 625.2924
  L 392.2496 625.3276
  L 392.0400 625.5380
  L 392.0400 625.5380
  L 392.2504 625.7476
  L 412.4704 625.7124
  L 412.6800 625.5020
  L 412.6800 625.5020
  Z
  M 416.12 625.72
  L 416.12 625.72
  L 416.40 625.84
  L 416.59 625.81
  L 416.62 625.79
  L 416.69 625.57
  L 416.62 625.39
  L 416.44 625.36
  L 416.18 625.41
  L 416.03 625.53
  L 416.12 625.72
  Z
  M 426.8900 625.5050
  L 426.4704 625.2943
  L 425.4590 625.2100
  L 424.4481 625.3014
  L 424.0300 625.5150
  L 424.4496 625.7257
  L 425.4610 625.8100
  L 426.4719 625.7186
  L 426.8900 625.5050
  Z
  M 432.45 625.78
  L 433.43 625.67
  L 433.81 625.56
  L 433.47 625.36
  L 432.36 625.32
  L 432.20 625.52
  L 432.30 625.75
  L 432.45 625.78
  Z
  M 474.27 625.43
  L 474.25 625.80
  L 474.33 625.87
  L 474.46 625.90
  L 474.66 625.81
  L 474.75 625.68
  L 474.70 625.41
  L 474.65 625.35
  L 474.44 625.29
  L 474.27 625.43
  Z
  M 439.19 629.52
  L 439.75 630.44
  L 440.07 631.65
  L 440.13 633.16
  L 439.94 634.95
  L 439.95 635.01
  L 440.01 635.06
  L 440.27 635.16
  L 440.42 635.17
  L 440.51 635.04
  L 440.76 633.53
  L 440.71 632.06
  L 440.40 630.73
  L 439.82 629.43
  L 438.71 628.11
  L 436.41 625.98
  L 436.26 625.91
  L 436.08 625.95
  L 435.81 626.11
  L 435.75 626.18
  L 435.79 626.26
  L 439.19 629.52
  Z
  M 439.29 626.62
  L 439.30 626.63
  L 439.58 626.61
  L 439.62 626.58
  L 439.56 626.37
  L 439.26 626.34
  L 439.18 626.46
  L 439.29 626.62
  Z
  M 469.35 629.49
  L 467.32 631.29
  L 467.20 631.55
  L 467.48 631.62
  L 468.11 631.39
  L 468.77 630.76
  L 469.71 630.00
  L 470.74 629.38
  L 471.55 628.98
  L 471.98 628.46
  L 472.01 628.17
  L 471.72 628.20
  L 469.35 629.49
  Z
  M 473.22 628.32
  L 473.30 628.57
  L 473.33 628.58
  L 473.81 628.51
  L 473.67 628.12
  L 473.58 628.05
  L 473.40 628.07
  L 473.27 628.17
  L 473.22 628.32
  Z
  M 468.38 628.68
  L 468.44 628.81
  L 468.63 628.92
  L 468.88 628.72
  L 468.88 628.69
  L 468.82 628.54
  L 468.75 628.48
  L 468.40 628.35
  L 468.38 628.68
  Z"
/>
<rect fill="#ffffff" x="-18.30" y="-7.74" transform="translate(386.62,330.99) rotate(43.1)" width="36.60" height="15.48" rx="7.26"/>
<path fill="#ffffff" d="
  M 628.91 345.92
  L 628.51 346.01
  L 627.35 346.04
  L 626.22 345.78
  L 625.01 345.19
  L 623.86 344.37
  L 622.67 343.22
  L 621.52 341.78
  L 620.58 340.24
  L 619.95 338.81
  L 619.86 338.15
  L 619.96 337.42
  L 620.77 335.61
  L 622.38 333.40
  L 624.36 331.35
  L 629.75 326.47
  L 636.15 320.28
  L 639.50 317.44
  L 640.98 316.56
  L 642.33 316.04
  L 644.27 315.76
  L 646.06 316.00
  L 646.06 316.00
  L 647.23 316.47
  L 648.33 317.20
  L 649.36 318.18
  L 650.31 319.41
  L 651.49 321.78
  L 651.75 322.95
  L 651.80 324.10
  L 651.80 324.10
  L 651.41 325.92
  L 650.47 327.71
  L 648.87 329.57
  L 646.32 331.80
  L 644.65 333.24
  L 634.26 343.00
  L 632.69 344.21
  L 630.89 345.20
  L 628.91 345.92
  Z"
/>
<path fill="#ffffff" d="
  M 837.73 344.78
  L 840.40 345.21
  L 840.82 345.42
  L 840.95 345.88
  L 840.64 348.75
  L 840.00 351.35
  L 839.01 353.69
  L 837.68 355.76
  L 837.42 356.24
  L 837.33 356.68
  L 837.27 360.18
  L 837.48 365.33
  L 837.66 373.16
  L 837.10 391.55
  L 836.90 395.65
  L 836.55 399.01
  L 836.05 401.63
  L 835.41 403.52
  L 834.22 405.53
  L 832.70 407.17
  L 832.70 407.17
  L 832.70 407.17
  L 830.88 408.44
  L 828.74 409.34
  L 826.28 409.88
  L 823.50 410.06
  L 682.26 410.04
  L 667.40 409.91
  L 665.30 409.63
  L 663.06 408.74
  L 660.96 407.27
  L 659.50 405.80
  L 658.29 404.17
  L 658.29 404.17
  L 658.29 404.17
  L 657.30 402.29
  L 656.58 400.25
  L 656.13 398.03
  L 655.96 395.63
  L 655.82 369.16
  L 656.09 341.42
  L 656.10 341.10
  L 656.42 339.15
  L 657.17 337.23
  L 658.35 335.33
  L 659.96 333.46
  L 662.35 331.44
  L 664.98 330.03
  L 664.98 330.03
  L 667.53 329.27
  L 670.28 328.99
  L 691.50 328.80
  L 779.00 328.97
  L 799.01 328.81
  L 814.06 328.78
  L 822.75 329.10
  L 826.02 329.61
  L 828.87 330.52
  L 831.31 331.83
  L 833.32 333.54
  L 834.90 335.61
  L 836.07 338.07
  L 836.83 340.92
  L 837.18 344.16
  L 837.33 344.59
  L 837.73 344.78
  Z"
/>
<path fill="#ffffff" d="
  M 448.71 384.03
  L 450.08 383.82
  L 452.22 383.58
  L 468.54 383.87
  L 469.57 383.99
  L 469.57 383.99
  L 470.95 384.53
  L 472.23 385.53
  L 473.87 387.63
  L 474.38 388.73
  L 474.69 389.87
  L 474.69 389.87
  L 474.69 389.87
  L 474.72 392.03
  L 474.09 394.31
  L 472.99 396.26
  L 471.53 397.72
  L 471.53 397.72
  L 470.43 398.37
  L 469.19 398.83
  L 467.81 399.10
  L 466.28 399.17
  L 441.77 399.11
  L 441.24 399.34
  L 441.02 399.87
  L 441.02 409.28
  L 441.20 409.73
  L 441.65 409.92
  L 462.50 409.88
  L 466.38 409.93
  L 469.16 410.31
  L 471.30 411.08
  L 472.91 412.29
  L 473.60 413.17
  L 474.16 414.25
  L 474.79 416.79
  L 474.73 419.17
  L 474.01 421.20
  L 472.77 422.83
  L 471.08 424.04
  L 469.04 424.81
  L 466.74 425.09
  L 439.50 425.13
  L 434.93 424.93
  L 431.66 424.32
  L 429.10 423.22
  L 428.09 422.49
  L 427.21 421.58
  L 426.42 420.35
  L 425.80 418.09
  L 425.60 414.65
  L 425.76 405.76
  L 425.80 400.75
  L 426.10 396.06
  L 426.91 391.63
  L 428.29 386.99
  L 430.04 382.63
  L 432.18 378.55
  L 434.69 374.75
  L 434.69 374.75
  L 434.69 374.75
  L 437.46 371.38
  L 440.57 368.26
  L 444.03 365.40
  L 447.83 362.80
  L 451.45 360.84
  L 455.41 359.24
  L 459.74 358.01
  L 464.41 357.13
  L 467.71 356.96
  L 469.05 357.13
  L 470.18 357.49
  L 471.97 358.50
  L 473.40 359.79
  L 474.43 361.31
  L 475.05 362.99
  L 475.22 364.38
  L 475.12 365.82
  L 474.76 367.17
  L 474.14 368.53
  L 473.32 369.74
  L 472.32 370.74
  L 472.32 370.74
  L 470.26 371.93
  L 467.72 372.52
  L 463.57 373.21
  L 459.79 374.37
  L 456.37 375.98
  L 453.33 378.05
  L 453.33 378.05
  L 450.69 380.55
  L 448.40 383.50
  L 448.28 383.93
  L 448.71 384.03
  Z"
/>
<path fill="#ffffff" d="
  M 504.29 407.43
  L 505.85 408.70
  L 505.85 408.70
  L 507.33 409.45
  L 508.99 409.94
  L 510.81 410.16
  L 512.81 410.11
  L 514.89 409.70
  L 516.71 408.91
  L 517.83 408.13
  L 518.82 407.21
  L 519.73 406.07
  L 520.48 404.81
  L 521.50 401.91
  L 521.85 398.75
  L 521.84 365.46
  L 521.93 363.65
  L 522.23 362.10
  L 522.71 360.80
  L 523.40 359.77
  L 524.45 358.70
  L 525.55 357.87
  L 526.69 357.29
  L 527.87 356.96
  L 527.87 356.96
  L 527.87 356.96
  L 527.87 356.96
  L 530.00 356.97
  L 532.27 357.71
  L 533.43 358.39
  L 534.38 359.20
  L 535.64 360.92
  L 536.47 363.11
  L 536.91 365.88
  L 537.05 369.73
  L 537.07 371.05
  L 537.16 391.51
  L 537.03 397.59
  L 536.65 402.11
  L 535.95 405.98
  L 534.89 409.24
  L 533.29 412.52
  L 531.41 415.43
  L 529.25 417.97
  L 526.80 420.13
  L 526.80 420.13
  L 526.80 420.13
  L 526.80 420.13
  L 524.09 421.90
  L 521.11 423.30
  L 517.85 424.34
  L 514.31 425.01
  L 512.21 425.18
  L 510.11 425.15
  L 507.94 424.91
  L 505.80 424.47
  L 501.61 422.98
  L 497.72 420.79
  L 494.21 417.94
  L 491.22 414.54
  L 489.97 412.68
  L 488.89 410.71
  L 487.35 406.70
  L 486.86 404.20
  L 486.46 400.64
  L 485.98 390.28
  L 485.88 375.65
  L 486.32 364.35
  L 486.90 362.20
  L 488.32 359.75
  L 489.90 358.17
  L 489.90 358.17
  L 491.03 357.55
  L 492.30 357.14
  L 493.79 356.91
  L 495.16 356.91
  L 496.42 357.14
  L 497.55 357.59
  L 497.55 357.59
  L 497.55 357.59
  L 498.67 358.36
  L 499.64 359.41
  L 500.46 360.73
  L 501.14 362.34
  L 501.85 365.84
  L 502.03 370.75
  L 501.47 388.00
  L 501.47 394.02
  L 501.93 401.20
  L 502.22 403.17
  L 502.71 404.86
  L 503.40 406.28
  L 504.29 407.43
  Z"
/>
<path fill="#ffffff" d="
  M 501.69 458.75
  L 504.86 455.66
  L 507.51 452.64
  L 510.37 449.24
  L 515.28 444.02
  L 521.82 437.82
  L 522.85 437.13
  L 524.15 436.65
  L 525.42 436.45
  L 526.63 436.55
  L 528.43 437.14
  L 529.97 437.96
  L 531.23 439.00
  L 532.21 440.24
  L 532.80 441.40
  L 533.17 442.68
  L 533.34 444.07
  L 533.29 445.56
  L 533.06 446.41
  L 532.56 447.40
  L 530.71 449.80
  L 515.49 466.47
  L 513.10 469.47
  L 512.93 470.09
  L 513.21 470.67
  L 516.01 473.49
  L 519.58 477.14
  L 520.30 477.95
  L 526.79 485.08
  L 533.48 492.03
  L 534.14 492.93
  L 534.81 494.31
  L 535.09 495.33
  L 535.04 496.82
  L 534.08 499.60
  L 532.55 501.82
  L 531.61 502.68
  L 530.57 503.36
  L 529.45 503.83
  L 528.26 504.07
  L 526.74 504.05
  L 525.18 503.64
  L 523.69 502.88
  L 522.21 501.72
  L 514.31 494.02
  L 503.38 482.73
  L 502.76 482.21
  L 502.32 482.13
  L 502.32 482.13
  L 502.06 482.49
  L 501.97 483.30
  L 502.15 493.25
  L 502.08 494.95
  L 501.79 496.79
  L 501.29 498.58
  L 500.66 500.10
  L 499.92 501.33
  L 499.03 502.38
  L 498.07 503.12
  L 496.96 503.61
  L 496.82 503.65
  L 494.25 504.03
  L 491.81 503.83
  L 489.84 503.09
  L 488.42 501.88
  L 487.75 500.75
  L 487.32 499.40
  L 487.02 497.66
  L 486.83 493.00
  L 486.87 445.72
  L 487.06 441.95
  L 487.38 440.67
  L 487.91 439.54
  L 489.08 438.18
  L 490.90 436.95
  L 492.08 436.45
  L 493.27 436.21
  L 494.78 436.28
  L 496.33 436.75
  L 498.39 437.85
  L 499.76 439.13
  L 500.57 440.59
  L 501.05 442.50
  L 501.82 449.58
  L 501.94 456.41
  L 501.46 458.13
  L 501.31 458.49
  L 501.22 459.02
  L 501.69 458.75
  Z"
/>
<path fill="#ffffff" d="
  M 449.07 477.96
  L 449.77 479.42
  L 451.18 480.76
  L 452.51 481.74
  L 456.12 484.26
  L 458.73 485.62
  L 461.49 486.70
  L 464.42 487.51
  L 467.50 488.05
  L 469.65 488.55
  L 471.50 489.45
  L 473.02 490.69
  L 474.15 492.23
  L 474.74 493.66
  L 475.04 495.24
  L 475.03 496.85
  L 474.71 498.54
  L 473.85 500.40
  L 472.61 501.68
  L 470.93 502.64
  L 467.62 503.72
  L 466.24 503.91
  L 465.05 503.87
  L 461.12 503.14
  L 457.34 502.12
  L 453.72 500.80
  L 450.26 499.18
  L 450.26 499.18
  L 450.26 499.18
  L 447.12 497.37
  L 444.11 495.29
  L 441.25 492.94
  L 438.53 490.33
  L 437.00 488.67
  L 434.31 485.34
  L 431.90 481.76
  L 429.77 477.94
  L 427.91 473.87
  L 426.80 470.45
  L 426.20 466.82
  L 425.90 458.97
  L 425.78 444.24
  L 425.98 442.51
  L 426.56 440.99
  L 426.56 440.99
  L 426.56 440.99
  L 427.41 439.82
  L 428.57 438.83
  L 429.97 437.98
  L 431.34 437.38
  L 432.69 437.02
  L 434.01 436.90
  L 467.27 436.84
  L 469.26 437.04
  L 471.02 437.67
  L 471.02 437.67
  L 472.58 438.76
  L 473.90 440.30
  L 474.59 441.54
  L 475.00 442.85
  L 475.00 442.85
  L 475.00 442.85
  L 475.10 444.75
  L 474.65 446.77
  L 473.82 448.51
  L 472.68 449.91
  L 472.68 449.91
  L 472.68 449.91
  L 471.39 450.86
  L 469.86 451.54
  L 468.07 451.96
  L 466.03 452.10
  L 442.20 452.05
  L 441.28 452.35
  L 440.97 453.27
  L 441.04 462.12
  L 441.29 462.64
  L 441.89 462.86
  L 448.13 462.99
  L 456.22 462.92
  L 463.41 462.84
  L 468.47 463.10
  L 470.23 463.48
  L 471.69 464.27
  L 471.69 464.27
  L 471.69 464.27
  L 472.48 465.00
  L 473.14 465.91
  L 474.07 468.25
  L 474.33 469.68
  L 474.37 471.02
  L 474.20 472.25
  L 473.81 473.38
  L 473.81 473.38
  L 472.78 474.94
  L 471.23 476.25
  L 469.87 476.99
  L 468.32 477.55
  L 466.59 477.91
  L 464.66 478.09
  L 456.49 478.13
  L 449.49 477.51
  L 449.12 477.58
  L 449.07 477.96
  Z"
/>
<path fill="#ffffff" d="
  M 464.80 640.11
  L 465.12 639.29
  L 465.30 639.07
  L 465.55 639.21
  L 465.93 640.02
  L 465.93 640.14
  L 465.75 640.57
  L 465.31 640.68
  L 465.00 640.60
  L 464.80 640.40
  L 464.80 640.11
  Z"
/>
</svg>
