<svg width="640" height="500" xmlns="http://www.w3.org/2000/svg" version="1.1">

 <g>
  <title>Layer 1</title>
  <path id="svg_1" d="m297.91,34.97l-1.81,0.74l-1.5,0.91l-1.2,1.08l-0.89,1.25l0,0l0,0l-0.53,1.24l-0.24,2.29l-0.07,4.87l0.03,12.19l0.08,0.5l0.21,0.41l1.22,1.51l1.28,1.14l1.35,0.78l1.4,0.42l1.89,0l1.99,-0.59l2.09,-1.19l2.19,-1.79l-1.18,1.58l-1.27,1.23l-1.35,0.87l-1.43,0.53l0,0l-1.69,0.16l-1.78,-0.26l-1.35,-0.48l-1.18,-0.71l0,0l0,0l-1.28,-1.21l-1.01,-1.58l-0.63,-2.25l-0.28,-3.54l-0.12,-8.69l0.21,-4.85l0.29,-1.5l0.47,-1.31l0.64,-1.11l0.82,-0.92l0,0l0.93,-0.69l1.08,-0.51l2.62,-0.52z" fill="#2c5692"/>
  <path id="svg_2" d="m299.95,35.11l0.89,0.53l1.42,0.25l1.38,0.87l1.04,0.91l0.69,0.95l0.35,0.98l0.57,4.58l0.14,5.05l-0.3,5.52l-0.73,5.98l-2.19,1.79l-2.09,1.19l-1.99,0.59l-1.89,0l0,0l-1.4,-0.42l-1.35,-0.78l-1.28,-1.14l-1.22,-1.51l-0.21,-0.41l-0.08,-0.5l-0.03,-12.19l0.07,-4.87l0.24,-2.29l0.53,-1.24l0,0l0.89,-1.25l1.2,-1.08l1.5,-0.91l1.81,-0.74l0.12,-0.06l0.88,-0.11l1.04,0.31z" fill="#000000"/>
  <path id="svg_3" d="m302.26,35.89l-1.42,-0.25l-0.89,-0.53l1.13,0.13l0.92,0.43l0.26,0.22z" fill="#2c5692"/>
  <path id="svg_4" d="m308.83,79.75l-5.54,-0.24l-5.49,-0.03l-5.42,0.19l-5.37,0.4l-5.31,0.62l-5.26,0.84l-5.19,1.05l-5.14,1.26l0,0l-7.55,2.29l-7.43,2.76l-7.29,3.25l-7.17,3.72l-7.25,4.54l-10.84,7.57l3,-2.61l3.28,-2.57l7.41,-5l4.67,-2.75l4.72,-2.53l4.77,-2.31l4.82,-2.09l4.86,-1.87l4.92,-1.65l4.96,-1.43l5.01,-1.21l0,0l0,0l0,0l0,0l9.22,-1.64l9.38,-0.91l9.53,-0.19l9.7,0.54z" fill="#2c5692"/>
  <path id="svg_5" d="m311.84,79.76l2.83,0.82l2.93,0.55l5.33,0.75l6.86,1.51l6.71,1.86l6.56,2.21l6.4,2.55l0,0l0,0l0,0l0,0l6.48,3.01l6.32,3.38l6.16,3.75l6,4.13l2.03,1.46l0.54,0.76l4.31,3.57l4.16,3.73l0,0l4.25,4.14l4.08,4.33l3.91,4.51l3.74,4.7l3.71,5.3l0,0.47l0,0l0.33,0.72l0.75,0.66l1.89,3.19l3.64,7.3l3.15,7.49l1.95,5.44l1.69,5.53l2.59,9.19l0.61,1.14l1.02,0.73l8.72,3.8l0.73,0.65l0.62,0.13l0,0l0.23,-0.11l-0.01,-0.09l0.09,0.24l1.68,1.22l1.38,0.44l5.52,3.26l0.33,0.53l0.74,0.24l0.41,0.28l0.45,0.59l0.57,0.17l0.35,0.45l0.53,0.35l0.68,0.18l0.38,0.29l0.92,1.03l1.05,0.8l1.13,0.55l2.21,1.8l0.57,0.81l0,0l0.76,0.67l0.95,0.51l0.2,0.27l0.34,0.53l0.44,0.32l0,0l0.47,0.12l4.86,4.81l5.16,5.92l0.8,0.76l0.41,0.82l4.61,6.91l2.37,3.64l1.98,3.44l4.88,9.33l1.43,3.22l0.33,2.04l0.15,0.55l0.42,0.9l0.62,0.57l0,0l0.62,0.22l1.38,-0.15l4.15,0.35l7.69,1.56l2.07,0.4l10.86,3.48l0.02,0.03l0.74,0.25l0.86,0.18l0.55,0.38l1.65,1.02l2.43,0.94l0.19,0.18l1.38,0.68l9.67,5.62l0.55,0.45l0.27,0.04l6.18,4.74l3.13,2.73l1.87,2.32l2.52,2.14l3.52,3.81l5.78,7.94l2.93,4.59l2.03,3.86l1.76,4.01l1.62,4.16l1.42,4.2l1.22,4.25l1.02,4.28l0,0l1.26,7.16l0.72,7.28l-0.14,10.19l0.18,1.59l0.02,0.58l-0.4,1.14l-0.33,0.91l-1.02,6.01l-1.41,5.9l0,0l0,0l-2.11,6.68l-2.62,6.55l-0.14,0.52l0.07,0.39l0,0l0.13,0.16l-0.58,0.71l-3.44,5.79l-3.71,5.6l0,0l0,0l-3.37,4.61l-3.56,4.49l-3.57,3.85l-4.79,3.65l-4.7,3.75l-5.83,3.95l-6.36,3.42l-7.15,3.03l-7.92,2.64l-8.7,2.26l-4.81,0.74l-5.03,0.24l-80.25,-0.02l-12.45,0.42l-5.14,-0.44l0,0l-3.36,0.06l-3.36,0.31l-2.6,-0.38l-1.42,-0.9l-1.19,-1.02l-0.93,-1.12l-0.7,-1.22l0,0l0,0l-0.56,-1.9l-0.08,-2l0.44,-1.8l0.57,-1.08l0.81,-0.99l0.63,-0.56l0,0l0,0l1.19,-0.78l1.37,-0.55l1.55,-0.33l1.72,-0.11l98.26,0.01l4.26,-0.11l4.22,-0.35l4.18,-0.59l4.13,-0.81l4.11,-1.06l4.04,-1.29l3.94,-1.51l3.85,-1.73l3.71,-1.93l3.6,-2.15l3.46,-2.34l3.33,-2.56l3.17,-2.73l3.01,-2.93l2.77,-3.04l2.61,-3.22l4.16,-6.1l3.5,-6.45l2.84,-6.83l2.11,-7.06l1.37,-7.18l0.61,-7.27l-0.16,-7.2l-0.92,-7.17l-0.99,-4.58l-1.25,-4.46l-1.52,-4.34l-1.79,-4.21l0,0l-2.5,-4.91l-2.89,-4.73l-3.28,-4.55l-3.66,-4.38l-3.43,-3.54l-3.71,-3.29l-3.98,-3.04l-4.27,-2.8l-5.95,-3.28l-6.06,-2.71l-6.18,-2.14l-6.3,-1.56l0,0l-4.17,-0.71l-4.22,-0.46l-10.03,-0.69l-0.74,-0.17l-0.65,-0.38l-0.51,-0.56l-0.32,-0.69l-2.1,-6.67l-2.45,-6.42l-3.47,-7.39l-4.08,-7.02l-4.67,-6.6l-5.23,-6.15l-5.7,-5.58l-6.21,-5.05l-6.58,-4.4l-7.01,-3.8l-0.33,0l-0.2,0.25l0,0l-0.01,0.09l0.06,7.09l-0.27,6.95l-0.61,6.82l-0.94,6.68l-1.27,6.55l-1.61,6.41l-1.94,6.28l-2.28,6.15l0,0l-2.25,5.22l-2.49,5.12l-2.75,5.02l-3,4.92l-3.25,4.82l-3.5,4.71l-3.76,4.62l-4,4.51l-5.56,5.51l-5.79,5.78l-2.33,2.91l-2.16,3.29l-1.98,3.68l-1.82,4.07l-5.46,13.06l-1.25,2.29l-1.43,2.03l-1.63,1.76l-1.81,1.49l0,0l0,0l0,0l-1.61,1.01l-1.73,0.84l-1.96,0.57l-2.72,0.41l-7.75,0.3l-42.52,-0.1l-52.89,0.39l-0.37,-0.32l-1.67,-0.65l-1.65,0.06l-0.42,-0.18l-0.55,-0.09l-0.33,-0.32l-0.02,-0.04l-0.85,-0.83l-0.95,-0.62l-1.77,-0.55l-2.58,-2.3l-1.39,-3l-1.53,-2.55l-0.13,-0.14l-0.53,-0.1l-0.19,-0.39l0.49,-0.27l0,0l-0.06,-0.41l-4.26,-9.77l-0.4,-0.74l-0.48,-0.32l0,0l-0.33,0.01l-0.14,-0.5l0.25,0.25l-0.08,-0.94l-0.31,-0.98l-1.27,-2.1l0.09,0.03l-0.24,-0.47l-0.2,-0.96l-0.41,-0.47l0,0l-0.44,-0.04l-0.16,-0.32l0.16,-0.51l0,0l-0.15,-0.48l-0.44,-0.48l-0.3,-0.33l-0.2,-0.46l-0.55,-1.28l-0.83,-0.82l0,0l-0.55,-0.24l-0.37,-0.5l0.54,0.33l-1.47,-2.46l-0.68,-0.58l-0.63,-0.16l0,0l-0.57,0.25l-0.22,-1.11l-0.83,-1.31l-1.47,-1.07l-9.65,-9.36l-0.94,-1.48l-1.27,-1.35l-1.22,-1.87l-1.51,-1.51l-0.9,-0.63l-0.41,-0.84l-0.84,-0.77l0.15,-0.49l-0.35,-0.82l-1.11,-0.84l-0.48,-0.3l0.19,-0.04l-1.18,-1.64l-5.3,-8.35l-0.34,-0.92l-0.8,-1.38l-1.09,-1.24l-0.77,-1.23l-0.04,-0.38l-0.53,-1.12l-0.5,-0.94l-0.26,-0.73l-0.31,-0.97l-0.42,-0.4l-0.42,0.1l-0.39,-0.37l0.32,-0.92l-0.1,-0.7l-0.74,-0.59l-0.5,-0.69l0.19,-0.68l-0.1,-0.52l-0.6,-0.44l-0.44,-0.48l0.19,-0.47l-0.26,-0.91l-1.04,-1.02l0.24,-0.04l-0.09,-0.41l-0.1,-0.11l-0.35,0.04l-0.12,-0.81l-0.36,-0.51l-0.13,-0.09l0.27,-0.27l0,0l0.03,-0.41l-0.22,-0.54l0.13,-0.91l-0.21,-0.69l0,0l-0.5,-0.45l-0.06,-0.01l-0.04,0.06l-0.07,0.24l-0.09,-0.18l-0.12,-0.17l0.17,-1.04l-0.24,-0.67l-0.67,-0.3l-0.41,-1.09l0.28,-0.53l0.04,-0.48l0,0l-0.28,-0.51l-0.61,-0.44l0.1,-0.02l0.01,-2l-0.59,-1.65l-0.74,-0.93l0.09,-0.11l0.06,-0.5l-0.28,-0.71l0.05,-0.25l0.01,-1.36l-0.42,-1.43l0,-0.71l-0.32,-0.1l-0.33,-0.42l0.11,-1.48l-0.12,-1.44l-0.4,-1.53l-0.26,-0.31l-0.16,0.02l0.08,-2.29l-0.36,-2.32l0.13,-1.62l-0.24,-1.51l-0.56,-1.33l-0.11,-11.64l0.01,-0.33l-0.14,-0.53l2.04,-19.88l0.22,-0.66l-0.01,-0.13l-0.07,-0.16l-0.32,-0.16l-0.1,-0.27l-0.03,-0.03l-0.18,0.04l-1.61,0.76l-1.74,0.54l-2.74,1.33l-2.07,0.73l-1.88,0.88l-1.71,1.04l-1.53,1.2l-4,2.25l-1.05,0.39l-0.69,0.63l-0.33,0.85l-0.44,-0.02l0,-0.27l-0.07,-0.1l-0.12,0l-1.33,0.74l-0.54,0.62l-0.39,0.77l-0.6,0.29l-0.13,-0.29l-0.14,-0.11l-0.17,0.07l-7.27,7.14l-4.65,4.59l-0.66,0.56l-1.07,0.79l-0.78,0.8l-0.47,0.81l-0.17,0.81l0,0l0,0l0,0.18l-1.71,2.2l0.1,0.11l-0.93,0.51l-1.06,1.16l-0.05,0.19l0.08,0.16l0.01,0.01l0.26,0.1l-0.23,0.29l-0.05,0.21l0.04,0.13l0.21,0.06l-0.69,1.18l-0.13,-0.5l-2.04,2.04l-0.7,1.12l-0.48,1.18l0,0l-0.13,0.5l-1.51,4.39l-0.13,-0.32l-0.53,0.81l-0.36,-0.38l0,0l-0.37,0.3l-0.39,0.93l0.01,0.22l0.25,0.1l0.04,0.41l0.04,0l-1.49,1.71l-0.36,0.84l-0.09,0.83l0.31,1.16l-0.17,-0.03l-0.45,0.46l-0.1,0.02l-0.53,0.34l-0.44,0.66l-0.58,2.29l-0.21,0.35l-0.82,1.71l-0.56,1.86l0.03,0.8l-0.63,1.1l-0.08,0.99l0.13,0.38l-0.27,0.56l-0.22,0.12l-0.26,0.84l-0.52,0.86l-0.05,0.78l0.26,0.86l-0.24,0.52l-0.61,0.95l-0.23,0.95l0,0l0.32,1.3l-0.1,0.08l0,0l-0.39,0.84l0.11,1.43l-0.15,-0.43l-0.83,2.17l-0.04,2.02l0.27,0.94l-0.23,0.84l0.01,0.94l-0.21,-1.13l-1.15,6.71l-0.49,0.91l-1.42,1.17l-0.6,0.09l-0.48,0.65l-0.74,-0.11l-0.53,-0.11l-2.1,-0.05l-2.19,0.55l-1.02,0.04l-1.42,0.34l-2.01,0.39l-1.76,0.65l-1.41,0.24l-0.66,0.54l0,0.01l-1.32,0.01l-1.38,0.23l-2.95,1.1l-0.84,0.18l-0.5,0.4l-0.15,0.57l-0.61,-0.05l0.08,-0.11l-0.3,-0.07l0,0l-1.06,0.26l-1.16,1.02l-0.43,-0.02l-0.06,-0.32l-0.27,-0.03l-1.07,0.41l-1.11,0.73l-0.98,1l-0.55,0.21l0.03,-0.2l-0.06,-0.07l-0.01,-0.01l-0.21,-0.02l-0.63,0.34l-0.15,0.74l-0.44,0.58l-0.39,-0.43l-1.18,0.17l-0.45,0.31l0.33,0.51l-2.16,1.18l-0.23,-0.17l-0.42,0.25l-0.53,0.87l-0.45,-0.09l0.08,-0.14l-1.91,0.91l0,0l-1.07,1.04l-0.83,1.35l0.02,-0.06l-0.31,0l0,-0.26l-0.32,-0.17l-0.01,0l-0.19,0.16l-0.01,0.03l-0.86,0.64l-1.03,1.37l-0.74,0.31l-0.06,0.42l-1.37,0.96l-0.24,0.21l-0.18,0.35l-0.17,0.34l-0.02,0.16l-1.46,0.94l-0.84,1.18l0,0l-0.2,0.75l-0.31,-0.05l0,0l-0.16,0.33l0.03,0.74l-0.42,-0.82l-0.11,0.05l-0.72,0.79l-0.32,0.58l-1.56,1.11l-0.35,0.46l-0.06,0.4l0,0l0,0l0.22,0.33l-1.98,2.63l-0.38,-0.13l-0.32,0.34l-0.21,0.87l-0.4,0.64l-0.21,0.03l0,0l-0.4,0.4l-0.23,0.87l-0.83,0.76l-0.65,0.88l0,0l-0.62,1.47l0.01,0.26l0.27,-0.01l0.36,-0.27l-0.11,0.39l-0.07,-0.1l-1.42,1.58l-1.08,1.75l0,0l-0.73,1.95l-0.38,2.13l-0.28,0.9l-0.76,0.77l-0.56,1.46l0.01,0.13l0.1,0.08l0.05,0.02l0.22,-0.07l-0.06,0.16l-0.01,0.42l-0.6,0.56l-0.32,0.63l0.07,1.18l-0.07,0.27l-0.07,1.16l-0.73,0.84l-0.51,1.45l-0.67,4.08l-0.05,1.7l0.15,1.46l-0.27,4.5l0.06,-1.1l-0.16,-0.92l-0.17,-0.28l-0.14,0.29l-0.49,3.92l0,0l0.15,3.42l0.69,3.45l0.04,0.06l0.43,0.3l-0.35,0.68l0,0l-0.2,0.94l0.08,1.04l1.09,5.98l0.25,0.82l0.82,0.88l0.11,0.46l0.14,0.22l-0.11,-0.01l-0.22,0.08l-0.13,0.16l0,0.22l1.39,4.84l0.18,0.25l0.29,-0.09l0.12,-0.14l0.03,-0.18l0.37,0.82l-0.29,0.56l0.01,0.4l0,0l0.35,0.25l0.72,0.08l0.06,0.34l0,0l0.8,2.62l1.29,2.51l0.16,1.18l0.6,0.88l1.04,0.7l0.1,0.4l-0.21,0.23l-0.1,0.2l0.07,0.2l3.17,4.41l0.07,-0.07l0.46,0.48l0,0.2l0,0l0.2,0.58l0.5,0.55l0.47,0.71l0.6,0.45l0.24,0.09l0.08,0.11l3.33,3.8l3.89,3.37l0.29,0.77l0.35,0.29l0.33,-0.14l0.46,0.7l0.55,0.38l0.7,1.05l0.87,0.92l1.06,0.78l0.29,0.06l0.17,-0.25l-0.02,-0.36l0.44,0.4l0.42,0.1l-0.14,0.47l0.2,0.29l5.29,3.47l1.24,0.74l1.05,0.14l0.65,0.19l0.01,0.15l0.29,0.45l0,0l0.53,0.27l0.76,0.03l0.39,0.26l-0.04,0.05l0.71,0.56l1.99,0.97l0.05,0l0.06,-0.03l0.12,-0.23l0.5,0.41l0.85,0.71l0.78,0.18l0.32,-0.09l2.8,1.29l2.89,0.84l0.17,0.03l2.63,0.8l0.92,0.18l1.03,-0.02l1.04,-0.27l0.45,0.25l-0.01,0.49l0.32,0.32l0.64,0.18l4.56,0.77l4.56,0.43l14.11,0.01l9.81,-0.2l2.58,-0.33l1.8,-0.07l2.2,0.18l6.32,0.61l6.8,0.25l7.26,-0.11l7.73,-0.47l2.35,-0.35l2.02,-0.64l2.34,-0.07l1.44,-0.31l-0.08,0.62l6.93,0.55l6.89,0.35l6.86,0.12l6.83,-0.08l7.09,-0.03l7,-0.01l0.46,0.07l0.4,0.24l0.24,0.18l0.38,0.21l0.38,0.04l0.07,-0.04l0.03,-0.02l0.13,-0.51l1.39,1.4l1.23,4.86l0.14,0.26l0.18,-0.25l0.35,-0.96l0.14,2.28l-0.62,1.07l-0.15,1.04l0,0.03l-1.99,2.09l-3.12,1.6l-0.01,0.05l-0.4,0.24l-1.03,0.07l-102,0.02l-9.01,-0.28l-14.54,-2.4l-0.66,-0.16l-11.51,-4.24l-0.81,-0.59l0,0l-1.18,-0.55l-1.32,-0.3l-0.22,0.07l-0.39,-0.36l-8.34,-4.77l-3,-2.15l-0.47,-0.65l-0.59,-0.11l-0.68,-0.48l-1.31,-1.45l-2.03,-1.39l0.02,0.26l-0.11,-0.24l-5.91,-5.53l-1.41,-1.42l-0.89,-1.43l-4.16,-5.21l-3.69,-5.41l-3.25,-5.61l-2.78,-5.81l0,0l-2.39,-6.16l-1.9,-6.37l-1.43,-6.58l-0.94,-6.78l-0.06,-10.74l0.53,-4.71l0.75,-4.58l0.96,-4.47l1.18,-4.35l1.39,-4.22l1.6,-4.11l1.82,-3.98l2.03,-3.87l0,0l0,0l0,0l0,0l0,0l2.86,-4.7l3.2,-4.51l3.55,-4.31l3.88,-4.13l5.77,-5.24l6.18,-4.64l0,0l0,0l0,0l3.63,-2.34l3.76,-2.14l3.88,-1.97l4.01,-1.77l4.14,-1.59l4.27,-1.4l4.39,-1.22l4.52,-1.03l0.65,-0.19l0.49,-0.36l0.41,-0.92l1.9,-9.23l0,-0.38l-0.15,-0.37l0.09,-0.18l0.2,-0.07l0.44,-0.67l2.4,-8.18l2.95,-7.85l3.5,-7.51l4.04,-7.17l0,0l0,0l0,0l4.4,-6.59l4.91,-6.27l5.42,-5.96l5.92,-5.65l0.17,-0.31l-0.11,-0.17l2.14,-1.54l0.91,-0.2l0.76,-0.41l0,0l0.66,-0.65l0.5,-0.88l0.05,-0.07l0.78,-0.84l1.03,-0.67l5.81,-3.19l5.68,-3.34l5.46,-2.59l5.54,-2.3l5.62,-1.99l5.7,-1.69l1.06,-0.58l0.66,-1.02l3.71,-9.57l4.52,-9.57l0.09,-0.28l8.8,-13.5l0.59,-1.03l0.96,-0.94l16.46,-17.23l0.83,-1.11l1.01,-0.63l0,0l0.28,-0.09l10.84,-7.57l7.25,-4.54l7.17,-3.72l7.29,-3.25l7.43,-2.76l7.55,-2.29l0,0l0,0l0,0l5.14,-1.26l5.19,-1.05l5.26,-0.84l5.31,-0.62l5.37,-0.4l5.42,-0.19l5.49,0.03l5.54,0.24l0.89,-0.12l1.12,0.13zm-48.95,20.58l-0.6,0.08l-0.05,-0.05l-0.34,-0.11l-0.51,0.09l-6.39,2.42l-6.1,2.95l-4.79,2.82l-4.6,3.17l-0.57,0.53l-0.69,0.3l-4.22,2.42l-3.86,2.85l0,0l-3.57,3.35l-9.68,9.76l-5.27,5.95l-4.82,6.62l-4.38,7.29l-3.94,7.97l-2.06,4.9l-1.81,4.88l-1.54,4.87l-1.28,4.84l-1.03,4.83l-0.77,4.82l-0.5,4.79l-0.25,4.78l-0.28,8.94l0.6,8.7l1.26,8.46l1.91,8.22l2.57,7.98l0,0l0,0l3.38,8.06l4.09,7.8l4.8,7.54l5.52,7.27l3.77,4.43l3.94,4.29l1.88,1.78l2.05,1.51l0.7,0.44l5.27,5.56l0.69,1.31l0.72,0.8l0.9,0.66l3.52,6.09l3.35,6.23l3.19,6.37l3.02,6.5l2.22,3.53l0.33,0.37l0.42,0.22l2.65,0.57l17.75,0.15l17.63,-0.36l5.38,0.37l55.25,0.01l1.45,-0.15l1.2,-0.53l0,0l0.86,-0.8l0.66,-1.12l5.04,-11.69l1.74,-3.79l1.93,-3.65l2.11,-3.53l2.29,-3.39l0,0l0,0l1.48,-2l3.45,-4l5.57,-5.56l4.92,-4.9l0.45,-0.88l-0.1,-0.99l-16.95,-41.37l-0.33,-0.42l-0.33,0.43l-6.87,17.8l-7.91,19.63l-1.37,2.94l-1.24,1.77l-0.99,0.85l-1.07,0.65l-1.12,0.43l-1.16,0.24l-1.84,-0.05l-1.8,-0.54l-1.6,-0.97l-1.41,-1.4l-0.23,-0.31l-0.79,-1.88l-0.14,-2.3l0.54,-2.83l1.2,-3.28l20.52,-48.74l1.27,-2.42l1.57,-1.95l1.56,-1.18l1.65,-0.57l0,0l1.26,-0.03l2.53,0.53l1.99,0.97l1.31,1.09l1.21,1.52l1.13,1.98l1.22,2.76l18.44,44.87l0.17,0.19l0.2,-0.16l2.89,-4.7l2.64,-4.76l2.4,-4.8l2.16,-4.86l1.9,-4.91l1.66,-4.95l1.42,-5.01l1.17,-5.06l0,0l0,0l0,0l0,0l1.02,-5.7l0.71,-5.76l0.4,-5.83l0.1,-5.89l-0.19,-5.24l-0.48,-5.19l-0.76,-5.23l-1.03,-5.19l-1.34,-5.29l-1.6,-5.24l-1.91,-5.33l-2.17,-5.27l-2.94,-6.17l-3.31,-5.88l-3.67,-5.57l-4.04,-5.27l0,0l0,0l-3.57,-4.09l-3.81,-3.88l-6.04,-5.67l-3.18,-2.86l-3.32,-2.66l0,0l0,0l-5.01,-3.46l-5.3,-3.06l-0.8,-0.33l-0.43,-0.49l-5.62,-3.18l-5.74,-2.79l-5.86,-2.4l-5.97,-2.02l0,0l0,0l0,0l-6.41,-1.71l-6.53,-1.28l-6.67,-0.86l-6.79,-0.43l-12.2,-0.08l-5.01,0.21l-4.97,0.49l0,0l-4.86,0.75l-4.82,1.02l-4.79,1.28l-4.76,1.54l-0.58,0.32l-0.52,0.55z" fill="#000000"/>
  <path id="svg_6" d="m375.45,105.74l-2.03,-1.46l-6,-4.13l-6.16,-3.75l-6.32,-3.38l-6.48,-3.01l0,0l0,0l0,0l0,0l-6.4,-2.55l-6.56,-2.21l-6.71,-1.86l-6.86,-1.51l-5.33,-0.75l-2.93,-0.55l-2.83,-0.82l8.87,1.17l8.64,1.75l8.41,2.32l8.19,2.9l0,0l0,0l7.62,3.31l7.41,3.84l7.21,4.36l7,4.89l0.74,0.68l0.52,0.76z" fill="#2c5692"/>
  <path id="svg_7" d="m183.15,102.82l-4.26,-3.61l-4.09,-3.8l0,0l-2.88,-2.88l-1.76,-1.55l-1.69,-0.87l-1.83,-0.32l-2.38,0.14l-1.09,0.25l-0.98,0.44l0,0l-1.38,1.13l-1.07,1.65l-0.29,0.66l0,0l0,0l-0.45,1.59l-0.17,1.69l0.11,1.81l0.4,1.92l-0.84,-1.62l-0.52,-1.53l-0.18,-1.47l0.15,-1.38l0,0l0,0l0.38,-1.12l0.63,-1.07l0.87,-1.01l1.11,-0.95l1.4,-0.93l1.35,-0.64l1.31,-0.37l1.29,-0.09l1.4,0.21l1.4,0.53l1.39,0.85l1.41,1.15l6.74,6.39l4.52,4.8z" fill="#99dd50"/>
  <path id="svg_8" d="m432.46,105.25l4.25,-4.54l0.98,-1.31l0.37,-1.09l0.12,-1.21l-0.12,-1.51l-0.3,-1.36l-0.51,-1.19l-0.69,-1.04l0,0l0,0l-1.49,-1.31l-1.98,-0.91l-2.42,-0.43l-1.09,0.09l-1.01,0.28l0,0l0,0l-1.72,1.11l-4.96,4.51l-3.84,3.23l5.63,-5.88l1.96,-1.74l1.81,-1.19l1.73,-0.7l1.65,-0.22l0.34,0.01l2.35,0.42l1.93,0.98l0,0l1.51,1.53l0.87,1.4l0.6,1.37l0.31,1.36l0.04,1.33l0,0l0,0l0,0l-0.25,1.35l-0.54,1.33l-0.84,1.31l-1.13,1.28l-1.8,1.6l-1.76,1.14z" fill="#2c5692"/>
  <path id="svg_9" d="m432.46,105.25l-4.52,4.2l-8.77,7.47l-1.36,0.88l-1.52,0.4l-2.11,0.04l-1.68,-0.01l-2.01,-1.23l-1.24,-1.21l-1.03,-1.46l-0.34,-2l0.03,-1.95l0.28,-1.44l0.49,-1.42l4.4,-4.43l4.97,-4.52l3.84,-3.23l4.96,-4.51l1.72,-1.11l0,0l1.01,-0.28l1.09,-0.09l2.42,0.43l1.98,0.91l1.49,1.31l0,0l0.69,1.04l0.51,1.19l0.3,1.36l0.12,1.51l-0.12,1.21l-0.37,1.09l-0.98,1.31l-4.25,4.54z" fill="#000000"/>
  <path id="svg_10" d="m183.15,102.82l3.89,3.64l2,4.17l0.12,0.48l-0.12,0.48l-0.55,1.41l-0.93,2.08l-1.41,1.62l-1.66,1.05l0,0l0,0l0,0l-1.71,0.47l-1.92,0.01l-2.11,-0.46l-2.32,-0.92l-4.97,-4.53l-1.8,-2.08l-1.95,-1.92l-3.69,-2.89l-4.68,-4.36l-0.4,-1.92l-0.11,-1.81l0.17,-1.69l0.45,-1.59l0,0l0,0l0.29,-0.66l1.07,-1.65l1.38,-1.13l0,0l0.98,-0.44l1.09,-0.25l2.38,-0.14l1.83,0.32l1.69,0.87l1.76,1.55l2.88,2.88l4.09,3.8l4.26,3.61z" fill="#000000"/>
  <path id="svg_11" d="m292.2,94.18l-6.38,0.81l-6.33,1.06l-6.25,1.29l-6.19,1.53l-5.16,1.47l0.52,-0.55l0.58,-0.32l4.76,-1.54l4.79,-1.28l4.82,-1.02l4.86,-0.75l0,0l4.97,-0.49l5.01,-0.21z" fill="#99dd50"/>
  <path id="svg_12" d="m353.99,108.93l-6.09,-3.08l-6.18,-2.73l-6.29,-2.38l-6.39,-2.03l0,0l-6.03,-1.57l-6.11,-1.26l-6.21,-0.96l-6.29,-0.66l6.79,0.43l6.67,0.86l6.53,1.28l6.41,1.71l0,0l0,0l5.97,2.02l5.86,2.4l5.74,2.79l5.62,3.18z" fill="#2c5692"/>
  <path id="svg_13" d="m261.29,100.42l-0.04,0.02l-5.83,2.45l-5.74,2.69l-5.63,2.94l-5.54,3.19l4.6,-3.17l4.79,-2.82l6.1,-2.95l6.39,-2.42l0.51,-0.09l0.34,0.11l0.05,0.05z" fill="#2c5692"/>
  <path id="svg_14" d="m626.22,118.07l-0.47,0.33l-20.98,-0.11l-2.83,0.17l-2.57,0.52l-2.3,0.88l-2.03,1.23l-1.69,1.5l-1.45,1.83l-1.21,2.14l-0.97,2.47l-1.41,5.05l-0.48,3.83l0.07,1.6l0.3,1.5l0.5,1.25l0.75,1.12l0.82,0.8l1.02,0.67l2.49,0.87l3.48,0.52l14.48,-0.13l0.66,0.08l0.41,0.27l0,0l0,0l0.17,0.47l-0.07,0.65l-1.36,5.44l-0.43,0.97l-0.72,0.77l-0.95,0.48l-1.05,0.14l-24.29,-0.91l-0.23,0.06l-0.11,0.2l-2.02,8.06l0.02,0.21l0.19,0.08l6.5,0.52l0,0l10.02,0.54l10.04,0.22l2.58,-0.14l2.3,-0.45l2.11,-0.77l1.84,-1.06l1.41,-1.13l1.22,-1.31l1.11,-1.57l0.93,-1.72l0.84,-2.05l0.68,-2.2l0.99,-5.18l0.3,0.27l-0.04,0.34l-0.58,5.22l-0.16,3.75l0,8.83l-0.18,5.25l-0.38,2.72l-0.72,2.4l-1.04,2.06l-1.39,1.74l0,0l0,0l-1.41,1.21l-1.65,0.97l-1.73,0.63l-2.22,0.46l-2.69,0.27l-3.17,0.09l-148.48,0l-5.61,-0.3l-1.96,-0.38l-1.39,-0.53l-2.47,-1.76l0,0l0,0l-1.18,-1.25l-1.02,-1.44l-0.85,-1.61l-0.69,-1.79l-0.72,-3.54l-0.12,-5.01l0.01,-1.71l0.02,-45.86l0.34,-4.47l0.42,-1.79l0.58,-1.49l0.95,-1.65l1.14,-1.49l0,0l0,0l1.3,-1.3l1.48,-1.14l1.65,-0.98l1.84,-0.82l3.04,-0.56l5.25,-0.18l145.5,0.07l6.25,0.6l2.27,0.52l1.91,0.83l1.72,1.11l1.58,1.45l1.34,1.68l1.09,1.9l0.8,2.04l0.5,2.16l0.17,2.21l0.12,0.83l0.35,0.49l0.7,0.26l0.92,-0.02zm-162.37,32.68l15.18,-0.01l2.99,-0.15l2.7,-0.54l2.41,-0.92l2.13,-1.3l0,0l1.92,-1.76l1.6,-2.18l1.29,-2.6l0.98,-3.01l2.24,-9.51l0.24,-2.29l-0.11,-2.01l-0.48,-1.73l-0.84,-1.45l0,0l0,0l-1.16,-1.13l-1.5,-0.87l-1.33,-0.41l-1.9,-0.3l-5.46,-0.27l-24.61,0l-0.31,0.11l-0.17,0.27l-11.13,44.49l-0.01,0.05l0.11,0.34l0.32,0.14l10.59,0l0.41,-0.14l0.24,-0.36l2.98,-11.93l0.23,-0.39l0.45,-0.14zm97.01,-32.46l-0.29,0.16l-26.76,42.6l-0.34,0.17l-0.29,-0.24l-0.01,-0.07l-5.47,-42.31l-0.35,-0.31l-12.5,0l-0.29,0.16l-28.09,44.73l-0.05,0.28l0.18,0.22l0,0l0.16,0.04l11.75,0l0.29,-0.16l4.83,-7.69l0.29,-0.16l15.69,0l0.18,0.05l0.17,0.26l0.95,7.38l0.03,0.1l0.32,0.21l23.26,0l0.29,-0.16l4.82,-7.68l0.29,-0.16l15.69,0l0.18,0.05l0.17,0.26l0.95,7.38l0.03,0.1l0.32,0.21l11.87,0l0.26,-0.12l0.09,-0.27l-5.78,-44.72l-0.33,-0.31l-0.02,0l-12.49,0z" fill="#99dd50"/>
  <path id="svg_15" d="m413.08,103.09l-4.4,4.43l1.4,-2.08l1.36,-1.3l1.64,-1.05z" fill="#99dd50"/>
  <path id="svg_16" d="m171.46,112.32l-7.44,-6.89l3.69,2.89l1.95,1.92l1.8,2.08z" fill="#99dd50"/>
  <path id="svg_17" d="m400.44,131.48l-3.74,-4.7l-3.91,-4.51l-4.08,-4.33l-4.25,-4.14l0,0l-4.16,-3.73l-4.31,-3.57l-0.54,-0.76l4.13,3.09l3.93,3.28l3.74,3.45l3.55,3.64l0,0l5.05,5.93l4.59,6.35z" fill="#2c5692"/>
  <path id="svg_18" d="m176.43,116.85l2.32,0.92l2.11,0.46l1.92,-0.01l1.71,-0.47l0,0l0,0l1.66,-1.05l1.41,-1.62l0.93,-2.08l0.55,-1.41l0.12,-0.48l-0.12,-0.48l-2,-4.17l0.93,1.13l0.69,1.15l0.44,1.17l0.2,1.18l0,0l-0.17,1.91l-0.42,1.22l0,0l-1.29,1.96l-1.98,1.66l-1.86,0.91l-1.86,0.33l0,0l0,0l-1.32,-0.13l-1.32,-0.41l-1.32,-0.7l-1.33,-0.99z" fill="#2c5692"/>
  <path id="svg_19" d="m408.68,107.52l-0.49,1.42l-0.28,1.44l-0.03,1.95l0.34,2l-1.01,-1.78l-0.26,-1.73l0,0l0,0l0.49,-1.68l1.24,-1.62z" fill="#99dd50"/>
  <path id="svg_20" d="m427.94,109.45l-2.91,3.09l-3.09,2.88l0,0l-1.23,1.04l-1.88,1.31l-1.9,0.85l-1.84,0.32l-1.62,-0.25l-0.97,-0.46l1.68,0.01l2.11,-0.04l1.52,-0.4l1.36,-0.88l8.77,-7.47z" fill="#42acde"/>
  <path id="svg_21" d="m216.46,109.8l-16.46,17.23l3.81,-5.12l4.22,-4.73l0,0l4.06,-3.84l4.37,-3.54z" fill="#2c5692"/>
  <path id="svg_22" d="m372.03,121.79l-16.81,-12.04l5.3,3.06l5.01,3.46l3.32,2.66l3.18,2.86z" fill="#2c5692"/>
  <path id="svg_23" d="m237.25,112.54l-11.65,8.62l3.57,-3.35l0,0l3.86,-2.85l4.22,-2.42z" fill="#2c5692"/>
  <path id="svg_24" d="m627.87,119.74l-1.66,6.36l-0.53,0.79l-0.9,0.31l-18.4,0l-2.13,0.28l-1.68,0.86l0,0l0,0l-1.24,1.42l-0.79,2l-0.13,0.52l-0.19,1.88l0.16,0.74l0.33,0.6l0,0l0,0l0.51,0.46l0.68,0.33l1.88,0.25l13.46,0.14l1.48,0.12l1.34,0.31l1.2,0.49l1.06,0.67l1.42,1.49l1.04,1.97l0.26,1.68l-0.01,1.66l-0.12,0.97l-0.38,0.65l0,0.09l-0.99,5.18l-0.68,2.2l-0.84,2.05l-0.93,1.72l-1.11,1.57l-1.22,1.31l-1.41,1.13l-1.84,1.06l-2.11,0.77l-2.3,0.45l-2.58,0.14l-10.04,-0.22l-10.02,-0.54l0,0l-6.5,-0.52l-0.19,-0.08l-0.02,-0.21l2.02,-8.06l0.11,-0.2l0.23,-0.06l24.29,0.91l1.05,-0.14l0.95,-0.48l0.72,-0.77l0.43,-0.97l1.36,-5.44l0.07,-0.65l-0.17,-0.47l0,0l0,0l-0.41,-0.27l-0.66,-0.08l-14.48,0.13l-3.48,-0.52l-2.49,-0.87l-1.02,-0.67l-0.82,-0.8l-0.75,-1.12l-0.5,-1.25l-0.3,-1.5l-0.07,-1.6l0.48,-3.83l1.41,-5.05l0.97,-2.47l1.21,-2.14l1.45,-1.83l1.69,-1.5l0,0l0,0l0,0l2.03,-1.23l2.3,-0.88l2.57,-0.52l2.83,-0.17l20.98,0.11l0.47,-0.33l0.86,-0.13l0.7,0.16l0.07,0.06l0.16,0.23l0.09,0.59l-0.23,0.76z" fill="#000000"/>
  <path id="svg_25" d="m463.17,151.28l-2.98,11.93l-0.24,0.36l-0.41,0.14l-10.59,0l-0.32,-0.14l-0.11,-0.34l0,0l0.01,-0.05l11.13,-44.49l0.17,-0.27l0.31,-0.11l24.61,0l5.46,0.27l1.9,0.3l1.33,0.41l1.5,0.87l1.16,1.13l0,0l0.84,1.45l0.48,1.73l0.11,2.01l-0.24,2.29l-2.24,9.51l-0.98,3.01l-1.29,2.6l-1.6,2.18l-1.92,1.76l0,0l0,0l-2.13,1.3l-2.41,0.92l-2.7,0.54l-2.99,0.15l-15.18,0.01l-0.45,0.14l-0.23,0.39zm6.13,-24.05l-0.16,0.12l-3.45,13.81l0.04,0.4l0.37,0.14l11.9,0.09l2.11,-0.29l1.65,-0.87l0,0l1.04,-1.22l0.69,-1.65l1.7,-6.78l0.14,-1.64l-0.46,-1.17l0,0l0,0l-1.04,-0.71l-1.63,-0.23l-12.9,0z" fill="#000000"/>
  <path id="svg_26" d="m560.86,118.29l12.49,0l0.1,0.01l0.25,0.3l5.78,44.72l-0.04,0.21l-0.31,0.18l-11.87,0l-0.35,-0.31l-0.95,-7.38l-0.31,-0.31l-0.04,0l-15.69,0l-0.29,0.16l-4.82,7.68l-0.06,0.07l-0.23,0.09l-23.26,0l-0.35,-0.31l-0.95,-7.38l-0.35,-0.31l-15.69,0l-0.29,0.16l-4.83,7.69l-0.29,0.16l-11.75,0l-0.29,-0.16l0,-0.38l28.09,-44.73l0.1,-0.1l0.19,-0.06l12.5,0l0.18,0.05l0.17,0.26l5.47,42.31l0.23,0.29l0.41,-0.15l26.76,-42.6l0.09,-0.09l0.2,-0.07zm-42.92,14.94l-0.25,-0.3l-0.37,0.13l-0.01,0.02l-8.6,13.7l-0.05,0.15l0.09,0.26l0.24,0.11l9.81,0l0.25,-0.11l0.09,-0.26l-1.2,-13.7zm46,0l-0.25,-0.3l-0.37,0.13l-0.01,0.02l-8.6,13.7l-0.02,0.32l0.25,0.2l0,0l0.05,0l9.81,0l0.25,-0.11l0.09,-0.26l-1.2,-13.7z" fill="#000000"/>
  <path id="svg_27" d="m627.87,119.74l-0.59,3.52l-0.68,2.61l-0.66,1.22l-1.15,1.11l-0.45,0.8l-0.22,3.33l0.01,3.32l0.65,6.08l-1.04,-1.97l-1.42,-1.49l0,0l-1.06,-0.67l-1.2,-0.49l-1.34,-0.31l-1.48,-0.12l-13.46,-0.14l-1.88,-0.25l-0.68,-0.33l-0.51,-0.46l0,0l0,0l-0.33,-0.6l-0.16,-0.74l0.19,-1.88l0.13,-0.52l0.79,-2l1.24,-1.42l0,0l0,0l1.68,-0.86l2.13,-0.28l18.4,0l0.9,-0.31l0.53,-0.79l1.66,-6.36z" fill="#99dd50"/>
  <path id="svg_28" d="m469.3,127.23l12.9,0l1.63,0.23l1.04,0.71l0,0l0,0l0.46,1.17l-0.14,1.64l-1.7,6.78l-0.69,1.65l-1.04,1.22l0,0l0,0l-1.65,0.87l-2.11,0.29l-11.9,-0.09l-0.37,-0.14l-0.04,-0.4l3.45,-13.81l0.16,-0.12z" fill="#99dd50"/>
  <path id="svg_29" d="m286.12,320.88l3.94,-3.08l3.75,-3.25l3.54,-3.43l3.34,-3.6l0,0l2.76,-3.3l2.6,-3.44l10.74,-15.65l4.55,-7.26l5.17,-9.02l14.82,-26.3l1.94,-3.2l1.81,-3.25l4.87,-10.86l4.55,-10.98l1.43,-2.42l2.85,-3.66l0.16,-0.34l-0.05,-0.39l-0.12,-0.18l-0.02,-0.02l-0.22,-0.37l0.07,-0.39l1.67,-3.61l1.43,-3.7l0,0l1.12,-3.55l0.91,-3.62l0.37,-1.16l0.57,-1.02l1.16,-1.2l2.47,2.62l2.69,3.25l0.91,0.99l0.97,0.77l1.12,0.61l1.16,0.38l1.27,0.18l1.25,-0.06l1.22,-0.27l1.14,-0.47l1.05,-0.66l0.93,-0.82l0.76,-0.99l0.58,-1.13l0.48,-2.13l-0.19,-2.19l-0.42,-1.17l-0.78,-1.34l-2.63,-3.2l-8.54,-9.24l-0.16,-0.49l0.25,-0.44l0,0l0.06,-0.04l3.11,-1.98l2.66,-2.23l2.21,-2.47l1.77,-2.71l0,0l0,0l1.07,-2.31l0.79,-2.46l0.52,-2.61l0.24,-2.76l-0.06,-3.05l-0.4,-2.86l-0.74,-2.6l-1.1,-2.42l-2.02,-2.95l-2.71,-2.65l-2.59,-1.93l-2.82,-1.77l0.91,0.11l0.85,0.37l0.35,0.07l0.23,-0.26l0.77,-1.54l0.98,-1.49l2.63,-2.83l3.81,3.88l3.57,4.09l0,0l4.04,5.27l3.67,5.57l3.31,5.88l2.94,6.17l2.17,5.27l1.91,5.33l1.6,5.24l1.34,5.29l1.03,5.19l0.76,5.23l0.48,5.19l0.19,5.24l-0.1,5.89l-0.4,5.83l-0.71,5.76l-1.02,5.7l0,0l0,0l0,0l-1.17,5.06l-1.42,5.01l-1.66,4.95l-1.9,4.91l-2.16,4.86l-2.4,4.8l-2.64,4.76l-2.89,4.7l-0.2,0.16l-0.17,-0.19l-18.44,-44.87l-1.22,-2.76l-1.13,-1.98l-1.21,-1.52l-1.31,-1.09l-1.99,-0.97l-2.53,-0.53l-1.26,0.03l-1.65,0.57l-1.56,1.18l-1.57,1.95l-1.27,2.42l-20.52,48.74l-1.2,3.28l-0.54,2.83l0.14,2.3l0.79,1.88l0.23,0.31l1.41,1.4l1.6,0.97l1.8,0.54l1.84,0.05l1.16,-0.24l1.12,-0.43l1.07,-0.65l0.99,-0.85l1.24,-1.77l1.37,-2.94l7.91,-19.63l6.87,-17.8l0.33,-0.43l0.33,0.42l16.95,41.37l0.1,0.99l-0.45,0.88l-4.92,4.9l-5.57,5.56l-3.45,4l-1.48,2l-2.29,3.39l-2.11,3.53l-1.93,3.65l-1.74,3.79l-5.04,11.69l-0.66,1.12l-0.86,0.8l0,0l-1.2,0.53l-1.45,0.15l-55.25,-0.01l-5.38,-0.37zm73.31,-114.76l-0.24,0.23l-0.02,0.47l0.02,0.05l0.36,0.06l0.21,-0.28l0.07,-0.26l-0.09,-0.23l-0.23,-0.07l-0.08,0.03z" fill="#f19940"/>
  <path id="svg_30" d="m189.65,142.5l1.74,-3.34l1.93,-3.22l0,0l2.44,-3.55l2.69,-3.39l-8.8,13.5z" fill="#2c5692"/>
  <path id="svg_31" d="m259.84,132l-3.11,-1.07l-2.03,-0.33l-3.77,0.28l-3.71,0.62l0,0l-4.11,1.1l-4.65,2.06l-4.68,2.04l2.88,-1.97l3.94,-1.87l2.9,-1.07l2.76,-0.79l2.61,-0.53l2.46,-0.25l2.32,0.02l2.17,0.3l2.03,0.56l1.87,0.84l0,0l0,0l0.12,0.06z" fill="#2c5692"/>
  <path id="svg_32" d="m281.72,130.01l2.78,1.29l1.14,0.86l0.97,0.99l0,0l0.37,0.47l0.5,0.87l0.35,1.04l0.24,2.61l-0.02,9.68l0.33,9.75l-0.01,9.66l-0.22,3.15l0.13,3.11l0.36,2.44l0.52,1.39l0.36,0.34l0.14,0.79l1.09,1.73l1.22,1.41l1.35,1.1l1.48,0.78l1.6,0.46l1.73,0.15l1.85,-0.17l1.99,-0.48l1.49,-0.57l1.31,-0.71l1.13,-0.85l0.94,-1.01l0,0l0,0l0,0l0.84,-1.28l0.61,-1.47l0.38,-1.64l0.16,-1.83l0.44,-38.76l0.73,-0.87l0.37,-1.43l2.02,-2.03l2.61,-0.34l2.24,0.08l1.89,0.51l1.53,0.93l0,0l1.29,1.55l0.52,1.28l0.35,1.81l0.23,5.17l-0.06,13.91l0.18,16.6l-0.25,3.72l-0.86,3.73l-1.48,3.75l-2.1,3.76l-1.87,2.33l-1.78,2.49l-1.79,1.33l-1.86,0.7l0,0l-1.24,0.74l-1.14,0.94l-2.02,0.67l-3.55,0.46l-3.54,0.49l-2.77,-0.07l-2.72,-0.36l0,0l-2.91,-0.72l-2.85,-1.06l-2.79,-1.41l-2.72,-1.74l-0.95,-0.65l0,0l-0.99,-0.96l-0.82,-1.17l-2.7,-3.94l-2.01,-4.2l0,0l-0.38,-1.04l-0.55,-2.01l-0.38,-2.37l-0.28,-5.84l-0.01,-32.25l-0.01,-2.01l0.35,-1.19l0.55,-0.99l0.19,-0.08l0,0l0.64,-0.57l0.44,-0.94l0.83,-0.72l0.9,-0.5l0.33,0.03l1.28,-0.19l1.3,-0.68l0.57,-0.16l0.38,0.1l0,0l0.11,0.11z" fill="#000000"/>
  <path id="svg_33" d="m314.83,192.26l1.78,-2.49l1.87,-2.33l2.1,-3.76l1.48,-3.75l0.86,-3.73l0.25,-3.72l-0.18,-16.6l0.06,-13.91l-0.23,-5.17l-0.35,-1.81l-0.52,-1.28l-1.29,-1.55l0,0l0,0l-1.53,-0.93l-1.89,-0.51l-2.24,-0.08l-2.61,0.34l1.7,-0.67l1.59,-0.34l1.48,-0.03l1.37,0.29l0,0l0,0l1.09,0.52l1.01,0.74l0.92,0.99l0.84,1.22l0.62,1.29l0.45,1.5l0.43,3.63l0.13,13.31l-0.19,17.8l-0.29,4.03l-0.73,3.78l-1.16,3.53l-1.61,3.27l0,0l0,0l-2.33,3.37l-2.88,3.05z" fill="#99dd50"/>
  <path id="svg_34" d="m280.66,129.96l-1.3,0.68l-1.28,0.19l-0.33,-0.03l1.31,-0.59l1.6,-0.25z" fill="#2c5692"/>
  <path id="svg_35" d="m281.72,130.01l2.03,0.39l1.75,0.9l0.91,0.82l0.74,0.96l1.11,2.51l0.62,3.36l0.21,4.63l0.02,0.85l-0.12,6.57l-0.61,6.57l-0.33,-9.75l0.02,-9.68l-0.24,-2.61l-0.35,-1.04l-0.5,-0.87l-0.37,-0.47l0,0l-0.97,-0.99l-1.14,-0.86l-2.78,-1.29z" fill="#99dd50"/>
  <path id="svg_36" d="m259.84,132l1.09,1.36l0.76,1.36l0.45,1.34l0.12,1.34l0,0l0,0l-0.15,1.16l-0.4,1.16l-0.31,0.27l0,0l-0.28,0.62l0.01,0.85l-0.86,1.26l-1.39,0.8l-1.78,0.67l-2.17,0.53l-2.56,0.4l-2.99,0.56l-2.84,0.94l-3,1.49l-2.8,1.97l-2.61,2.45l-2.41,2.91l-0.41,1.13l-0.01,0.4l0.38,0.1l1.6,-0.27l1.61,-0.19l17.4,0.3l2.97,2.62l0.97,0.98l0.65,1.11l0,0l0.33,1.26l-0.01,1.4l-0.38,3.41l-0.28,0.6l-0.25,0.2l-1.36,1.18l-1.38,0.85l-1.39,0.54l-1.4,0.22l-0.26,0l-26.21,-0.22l-0.85,0.34l-0.36,0.84l0,0l0,0.01l0,10.27l0.11,0.55l0.31,0.48l0.48,0.31l0.55,0.11l27.48,0.08l0.78,0.11l0,0l1.18,0.46l1.09,0.83l1.44,1.79l0.73,1.92l0,0l0.02,2.12l-0.74,2.26l-1.3,1.95l-0.76,0.66l-0.85,0.43l0,0l-0.82,0.2l-6.16,1.12l-15.57,0.14l-13.57,-0.2l-2.36,-0.35l0,0l-1.55,-0.57l-1.47,-0.84l-1.25,-1.61l-1.01,-1.72l-1.12,-2.87l0.09,-0.59l0.19,-0.66l-0.35,-0.67l0.56,-19.08l1.46,-5.57l1.94,-5.25l2.4,-4.91l2.87,-4.59l0,0l3.21,-4.12l3.66,-3.82l5.03,-3.92l4.68,-2.04l4.65,-2.06l4.11,-1.1l0,0l3.71,-0.62l3.77,-0.28l2.03,0.33l3.11,1.07z" fill="#000000"/>
  <path id="svg_37" d="m215.92,130.92l-5.68,7.21l-5.04,7.49l-4.4,7.75l-3.77,8.02l0,0l0,0l0,0l-3.21,8.59l-2.54,8.87l-1.85,9.16l-1.16,9.45l0.25,-4.78l0.5,-4.79l0.77,-4.82l1.03,-4.83l1.28,-4.84l1.54,-4.87l1.81,-4.88l2.06,-4.9l3.94,-7.97l4.38,-7.29l4.82,-6.62l5.27,-5.95z" fill="#2c5692"/>
  <path id="svg_38" d="m358.82,131.17l3.04,0.59l0,0l2.34,0.1l2.38,-0.2l4.77,1.37l2.82,1.77l2.59,1.93l2.71,2.65l2.02,2.95l1.1,2.42l0.74,2.6l0.4,2.86l0.06,3.05l-0.24,2.76l-0.52,2.61l-0.79,2.46l-1.07,2.31l0,0l0,0l-1.77,2.71l-2.21,2.47l-2.66,2.23l-3.11,1.98l-0.06,0.04l-0.25,0.44l0.16,0.49l8.54,9.24l2.63,3.2l0.78,1.34l0.42,1.17l0.19,2.19l-0.48,2.13l-0.58,1.13l-0.76,0.99l-0.93,0.82l-1.05,0.66l-1.14,0.47l-1.22,0.27l-1.25,0.06l-1.27,-0.18l-1.16,-0.38l-1.12,-0.61l-0.97,-0.77l-0.91,-0.99l-2.69,-3.25l-2.47,-2.62l-8.29,-8.67l-3.3,-6.87l-0.16,-1.73l0.12,-1.64l1.17,-2.73l0.8,-1.13l0.94,-0.97l0,0l0,0l1.29,-0.94l1.49,-0.71l3.35,-1.22l1.73,-0.73l1.26,-1.06l2.18,-2.92l1.17,-2.45l0.28,-1.63l-0.18,-1.49l0,0l-0.41,-0.97l-0.64,-0.89l-1.22,-1.9l-1.4,-1.2l-0.43,-0.44l-0.1,-0.08l-0.41,-0.17l-4.29,-0.67l-4.31,-0.4l0,0l-4.8,-0.14l-0.58,0.2l-0.33,0.52l0.04,0.53l0.25,0l-0.19,22.11l0.23,21.99l-0.25,1.53l-0.13,0.29l-3.03,4.14l-3.37,1.18l-0.65,-0.36l-0.58,-0.03l-0.63,0.45l-3.15,-1.33l-1.7,-2.16l-0.43,-0.9l-0.15,-0.79l-0.25,-56.23l0.2,-0.91l0.61,-1.07l2.41,-2.6l9.16,-0.48l9.67,0.21z" fill="#000000"/>
  <path id="svg_39" d="m366.58,131.66l-2.38,0.2l-2.34,-0.1l0,0l-3.04,-0.59l2.12,-0.17l0,0l2.81,0.13l2.83,0.53z" fill="#2c5692"/>
  <path id="svg_40" d="m339.99,131.44l-2.41,2.6l-0.61,1.07l-0.2,0.91l0.25,56.23l0.15,0.79l0.43,0.9l1.7,2.16l-1.09,-0.63l-0.88,-0.81l-0.94,-1.71l-0.37,-2.21l-0.18,-12.82l0.15,-17.18l-0.06,-20.74l0.06,-3.68l0.34,-2.19l0.4,-0.66l0.74,-0.67l2.52,-1.36z" fill="#2c5692"/>
  <path id="svg_41" d="m276.02,132.02l-0.44,0.94l-0.64,0.57l-0.19,0.08l0.28,-0.79l0.46,-0.54l0.53,-0.26z" fill="#2c5692"/>
  <path id="svg_42" d="m517.94,133.23l1.2,13.7l-0.02,0.13l-0.32,0.24l-9.81,0l-0.29,-0.17l0,-0.34l0.01,-0.01l8.6,-13.7l0.32,-0.16l0.31,0.31z" fill="#99dd50"/>
  <path id="svg_43" d="m563.94,133.23l1.2,13.7l-0.09,0.26l-0.25,0.11l-9.81,0l-0.23,-0.1l-0.05,-0.42l8.6,-13.7l0.32,-0.16l0.31,0.31z" fill="#99dd50"/>
  <path id="svg_44" d="m310.37,133.01l-0.37,1.43l-0.73,0.87l0.07,-0.84l0,0l0.36,-0.77l0.67,-0.69z" fill="#2c5692"/>
  <path id="svg_45" d="m273.86,137.8l-0.18,-0.63l-0.15,-0.21l0.32,-1.17l0.01,2.01z" fill="#2c5692"/>
  <path id="svg_46" d="m404.15,136.78l0.8,1.15l0.28,0.7l-0.75,-0.66l-0.33,-0.72l0,-0.47z" fill="#2c5692"/>
  <path id="svg_47" d="m273.86,137.8l0.01,32.25l0.28,5.84l0.38,2.37l0.55,2.01l0.38,1.04l0,0l2.01,4.2l2.7,3.94l-1.92,-2.02l-1.56,-2.07l-1.19,-2.13l-0.83,-2.19l-0.63,-2.82l-0.62,-4.18l-0.29,-3.27l-0.11,-3.8l0.04,-28.2l0.47,-1.81l0.15,0.21l0.18,0.63z" fill="#99dd50"/>
  <path id="svg_48" d="m261.71,139.72l-0.15,0.97l-0.43,0.77l-0.01,-0.85l0.28,-0.62l0,0l0.31,-0.27z" fill="#2c5692"/>
  <path id="svg_49" d="m228.75,140.62l-3.66,3.82l-3.21,4.12l0,0l-2.87,4.59l-2.4,4.91l-1.94,5.25l-1.46,5.57l0.94,-4.87l1.43,-4.69l0,0l1.99,-4.64l2.52,-4.44l3.04,-4.25l3.57,-4.06l1.1,-0.93l0.95,-0.38z" fill="#2c5692"/>
  <path id="svg_50" d="m407.12,141.82l2.19,3.49l1.87,3.38l1.53,3.25l1.2,3.13l1.87,5.25l1.91,5.24l2.72,9.86l0.78,1.55l1.32,1.12l7.98,4.35l-8.72,-3.8l-1.02,-0.73l-0.61,-1.14l-2.59,-9.19l-1.69,-5.53l-1.95,-5.44l-3.15,-7.49l-3.64,-7.3z" fill="#99dd50"/>
  <path id="svg_51" d="m260.27,142.72l-1.64,1.55l-1.84,0.99l-2.35,0.46l-3.63,0.36l-3.31,0.79l-2.99,1.22l-2.67,1.65l0,0l-2.3,2.03l-3.82,3.67l2.41,-2.91l2.61,-2.45l2.8,-1.97l3,-1.49l0,0l0,0l2.84,-0.94l2.99,-0.56l2.56,-0.4l2.17,-0.53l1.78,-0.67l1.39,-0.8z" fill="#2c5692"/>
  <path id="svg_52" d="m189.56,142.78l-4.52,9.57l-3.71,9.57l-0.66,1.02l-1.06,0.58l-5.7,1.69l-5.62,1.99l-5.54,2.3l-5.46,2.59l-5.68,3.34l-5.81,3.19l5.05,-3.41l5.19,-3.06l5.33,-2.7l5.47,-2.34l0,0l0,0l4.93,-1.77l5.04,-1.49l1.96,-0.73l1.33,-0.95l1.05,-1.51l0.99,-2.54l0.18,-0.54l1.35,-3.59l1.55,-3.5l2.04,-3.92l2.3,-3.79z" fill="#2c5692"/>
  <path id="svg_53" d="m366.01,146.78l-2.39,-0.67l-6.31,-0.14l-6.26,0.16l-0.25,0l-0.04,-0.53l0.33,-0.52l0.58,-0.2l4.8,0.14l4.31,0.4l4.29,0.67l0.41,0.17l0.1,0.08l0.43,0.44z" fill="#2c5692"/>
  <path id="svg_54" d="m624.91,146.04l-0.08,1.01l-0.3,-0.27l0,-0.09l0.38,-0.65z" fill="#2c5692"/>
  <path id="svg_55" d="m354.2,169.72l0.39,-1.64l0.56,-1.46l0.75,-1.27l0.93,-1.08l0,0l1.92,-1.39l2.41,-0.88l2.31,-0.68l1.49,-0.78l2.08,-1.99l1.34,-2.29l0,0l0,0l0.43,-1.45l0.18,-1.55l-0.06,-1.64l-0.3,-1.74l0.64,0.89l0.41,0.97l0,0l0.18,1.49l-0.28,1.63l-1.17,2.45l-2.18,2.92l-1.26,1.06l-1.73,0.73l-3.35,1.22l-1.49,0.71l-1.29,0.94l0,0l-0.94,0.97l-0.8,1.13l-1.17,2.73z" fill="#2c5692"/>
  <path id="svg_56" d="m260.82,167.69l0.38,-3.41l0.01,-1.4l-0.33,-1.26l-0.65,-1.11l-0.97,-0.98l-2.97,-2.62l1.54,0.72l1.29,0.85l1.04,1l0.8,1.13l0,0l0,0l0.57,1.36l0.3,1.53l-0.01,1.48l-0.31,1.37l0,0l-0.69,1.34z" fill="#2c5692"/>
  <path id="svg_57" d="m288.37,167.23l0.79,10.09l-0.52,-1.39l-0.36,-2.44l-0.13,-3.11l0.22,-3.15z" fill="#99dd50"/>
  <path id="svg_58" d="m260.29,168.49l-1,1.59l-1.29,1.12l0,0l0,0l-1.5,0.63l-1.76,0.2l-26.22,-0.02l-0.4,0.14l-0.12,0.38l0,10.02l0.14,0.34l0.34,0.14l25.77,-0.01l2.58,0.38l1.11,0.46l0.98,0.62l0.96,0.91l0.78,1.12l0.61,1.3l0.41,1.49l0.16,2.48l-0.19,1.11l-0.38,1.02l0,0l0,0l0,0l-0.8,1.23l-1.14,1.08l-1.47,0.91l-1.81,0.75l-2.06,0.24l-3.37,-0.22l6.16,-1.12l0.82,-0.2l0,0l0.85,-0.43l0.76,-0.66l1.3,-1.95l0.74,-2.26l-0.02,-2.12l0,0l-0.73,-1.92l-1.44,-1.79l-1.09,-0.83l-1.18,-0.46l-0.78,-0.11l-27.48,-0.08l-0.62,-0.14l-0.6,-0.53l-0.23,-0.78l0,-10.27l0,-0.01l0.36,-0.84l0.85,-0.34l26.21,0.22l0.26,0l0,0l0,0l1.4,-0.22l1.39,-0.54l1.38,-0.85l1.36,-1.18z" fill="#2c5692"/>
  <path id="svg_59" d="m357.54,179.96l-1.87,-2.38l-1.11,-2.58l0,0l-0.32,-1.91l3.3,6.87z" fill="#2c5692"/>
  <path id="svg_60" d="m289.66,178.45l1.4,1.62l1.49,1.28l1.58,0.95l1.66,0.62l0,0l2.44,0.3l1.85,-0.13l1.68,-0.35l1.51,-0.58l1.35,-0.81l0,0l1.43,-1.3l1.18,-1.65l0.92,-1.99l0.68,-2.34l-0.16,1.83l-0.38,1.64l-0.61,1.47l-0.84,1.28l0,0l0,0l0,0l-0.94,1.01l-1.13,0.85l-1.31,0.71l-1.49,0.57l-1.99,0.48l-1.85,0.17l-1.73,-0.15l-1.6,-0.46l-1.48,-0.78l-1.35,-1.1l-1.22,-1.41l-1.09,-1.73z" fill="#99dd50"/>
  <path id="svg_61" d="m175.46,179.93l-0.32,0.28l-0.06,0.29l0.05,0.22l0.51,0.32l-2.04,19.88l-0.06,0.02l0,0l-0.59,0.5l-0.41,1.01l-0.35,0.93l0.05,0.78l0.06,0.13l0.18,0.19l0.15,-0.22l0.12,-1.76l0.98,-0.72l0.11,11.64l-0.25,0l-0.08,0.01l-0.05,0.06l-0.35,1.13l0.01,1.06l0,0l0.48,1.2l0.07,-0.06l0.29,0.21l0.13,0.53l0.26,0.28l0,0l0.16,0.04l0.36,2.32l-0.08,2.29l-0.43,0.19l-0.23,0.47l0,0.72l-0.01,0.38l0.04,0.24l0.13,0.13l0.35,0.08l0.12,-0.34l0.03,-1.87l0.16,-0.02l0.26,0.31l0.4,1.53l0.12,1.44l-0.11,1.48l-0.12,0.02l-0.18,0.11l-0.13,0.28l-0.02,2.16l0.6,1.79l0.99,1.23l0.74,0.93l0.59,1.65l-0.01,2l-0.56,-0.24l-0.07,0.03l-0.05,0.03l0.04,0.41l0.14,0.05l0.4,-0.26l0.61,0.44l0.28,0.51l0,0l-0.04,0.48l-0.28,0.53l-0.19,0.07l-0.24,0.36l0,0.26l0.37,0.53l0.47,-0.13l0.67,0.3l0.24,0.67l-0.17,1.04l-0.25,-0.07l-0.24,0.05l-0.02,0.24l0.48,1.46l0.91,1.65l0.13,0.09l0.36,0.51l0.12,0.81l0.3,0.52l1.04,1.02l0.26,0.91l-0.19,0.47l-0.31,0.12l-0.04,0.23l0.11,0.23l0.68,-0.1l0.6,0.44l0.1,0.52l-0.19,0.68l-0.7,0.44l-0.44,0.57l-0.05,0.44l0.39,0.17l0.43,-0.04l0.48,-0.3l0.39,-0.59l0.74,0.59l0.1,0.7l-0.32,0.92l-0.31,0.1l0,0l-0.1,0.21l0.09,0.19l0.14,0.1l0.57,-0.23l0.42,-0.1l0.42,0.4l0.31,0.97l-0.79,0.44l-0.08,0.05l-0.03,0.08l0.01,0.19l0.03,0.12l0.13,0.18l0.21,-0.01l0.78,-0.32l0.5,0.94l-0.08,0.77l-0.78,0.3l-0.52,0.47l-0.21,0.46l0.02,0.29l0.28,-0.02l0.09,-0.04l0.4,-0.37l0.31,-0.17l0.32,0.15l0,0l0.06,0.1l1.25,2.43l1.63,1.99l0.61,0.1l0.19,-0.19l5.3,8.35l-0.73,-0.38l-0.36,-0.1l0.14,0.35l0.9,0.97l1.23,0.8l-0.19,0.04l0.48,0.3l-0.1,1.02l0.03,0.1l0.88,1.14l1.75,1.5l0.9,0.63l1.51,1.51l1.22,1.87l-2.79,-2.55l-0.19,-0.09l-0.13,0.1l-0.01,0.01l-0.06,0.23l0.05,0.08l5.34,5.05l9.65,9.36l2.52,3.49l0.57,-0.25l0,0l0,0l0.63,0.16l0.68,0.58l1.47,2.46l-1.51,-1.12l-0.86,-0.32l-0.63,0.27l0.47,0.51l0.66,0.34l1.7,0.49l0.55,0.24l0,0l0.83,0.82l0.55,1.28l0.2,0.46l0.3,0.33l0.44,0.48l0.15,0.48l0,0l-0.16,0.51l-0.43,-0.05l-0.18,0.11l-0.09,0.3l0.22,0.22l0.17,0l0.47,-0.26l0.44,0.04l0,0l0.41,0.47l0.2,0.96l-0.36,0.2l-0.77,0.35l-0.47,0.51l0,0l-0.08,0.19l0,0.28l0.28,0.01l0.15,-0.06l0.57,-0.38l0.47,-0.61l0.36,-0.05l1.27,2.1l0.31,0.98l0.08,0.94l-1.35,-1.93l-0.23,-0.19l-0.1,0.29l0.08,0.66l0,0l0.51,0.79l0.98,0.63l0.33,-0.01l0.48,0.32l0.4,0.74l4.26,9.77l0.06,0.41l0,0l-0.49,0.27l-0.34,-0.08l-0.06,0.03l-0.14,0.24l0.09,0.26l0.04,0.03l0,0l0.6,-0.09l0.53,0.1l0.13,0.14l1.53,2.55l1.39,3l1.8,2.44l2,1.79l0.43,0.21l0.63,0.06l0.72,-0.19l0.05,0.03l0.52,-0.04l0.02,0.04l0.33,0.32l0.14,0.37l0.17,0.11l0.21,0.04l0.45,-0.25l1.65,-0.06l1.67,0.65l-0.94,0.33l-0.08,0.09l-0.02,0.32l0.25,0.21l0.73,-0.06l0.43,-0.57l52.89,-0.39l1.32,12.44l-1.11,-0.19l-0.82,-0.4l-0.17,-0.46l-0.31,-0.1l-23.65,-0.23l-23.77,0.54l-0.87,0.54l-0.81,0.1l0,0l-0.69,-0.32l-0.34,-0.68l0,0l-0.48,0.02l-0.66,0.43l-1.29,1.26l-2.42,-0.05l-2.76,0.63l-2.02,1.29l-0.81,0.87l-0.67,1.03l-0.11,0.44l0.14,0.45l0.65,1.02l-0.15,1.94l0.22,1.86l0.11,0.46l-0.36,0.53l-0.28,0.24l-0.02,0.04l-0.01,0.03l0.06,0.32l0.47,0.55l0.73,0.25l0.86,0.49l0.23,0.74l-0.48,0.3l-0.07,0.31l0.19,0.24l0,0l0.07,0.03l1.14,0.29l0.33,0.23l0.99,1.01l1.44,0.53l1.83,-0.05l1.22,0.04l22.54,0.12l22.53,-0.19l0.27,-0.08l0.22,-0.45l1.02,-0.43l1.45,0.12l-0.82,0.12l-0.66,0.57l0.82,0.32l0.15,0.01l0.42,-0.14l0.42,-0.38l0.26,-0.48l0.16,-0.03l0.15,0.01l0.68,0.25l-0.02,0.34l0.57,0.37l1.33,0.09l-5.3,11.99l-47.55,-0.41l-1.81,-0.63l-1.55,0.13l-0.71,0.36l-0.64,0.57l-1.06,1.76l-1.24,3.77l-0.31,1.18l-0.04,1.45l0.22,1.7l0.47,1.97l-0.45,-0.35l0,0l0,0l-0.66,-0.86l-0.41,-1.13l-0.16,-1.4l0.09,-1.66l-0.01,-0.05l-0.04,-0.03l-0.36,-0.08l-0.23,0.14l0,0l-0.19,1.89l0.18,2.02l0.53,0.92l3.57,3.35l0.02,0.02l0.21,0.05l0.05,-0.01l0.29,-0.21l0.99,0.28l0.2,0.1l0.29,0.86l0.02,0.02l0.28,0.12l0.12,-0.04l0.26,-0.44l28.82,-0.17l-9.85,10.19l-1.13,-0.61l-0.25,-0.44l-0.17,-0.05l-0.17,0.03l-0.09,0.14l-0.01,0.04l0.03,0.22l-0.54,0.3l-0.44,0l-0.35,-0.3l-0.18,-0.37l0,0l-0.44,0.06l-0.7,0.52l-0.44,0.19l-0.47,-0.14l-0.85,-0.51l-0.29,-0.01l0.12,0.49l0.14,0.53l-0.26,0.66l-0.73,0.65l-0.24,0.23l-0.18,0.44l0.03,0.24l0.25,-0.04l1.43,-1.21l-1.37,2.26l-0.82,2.38l-0.26,1.9l0.06,1.96l-0.24,0.15l-0.26,0.42l-0.07,0.63l-0.11,0.41l-0.37,0.22l-0.5,-0.06l-0.31,-0.26l0.1,-0.41l0.83,-1.52l0.19,-1.09l-0.12,-0.24l-0.23,0.13l-1.11,1.97l-0.54,0.98l-0.51,0.46l-0.92,0.27l-1.01,0.06l-15.29,-0.22l-3.89,-0.25l-1.59,-0.15l-2.31,0.08l-0.33,-0.06l0.14,-0.3l0.87,-1.27l0.42,-1.33l0.04,-0.61l0,-0.03l0.15,-1.04l0.62,-1.07l0.45,-1.15l0.09,-1.12l0,0l-0.17,-0.85l-0.38,-0.83l-0.14,-0.08l-0.33,-0.65l0.01,-0.53l0.02,-0.05l-3.41,-3.31l-0.05,-0.02l-0.05,0.02l-0.16,0.21l-0.82,0.16l-0.81,-0.23l-0.8,-0.62l-0.25,-0.53l-0.71,-0.11l-0.09,0.02l-0.54,0.41l-0.68,0.46l-2.53,-0.16l-2.3,-0.5l-1.37,-0.28l-0.87,0.28l-0.25,0.34l-11.4,-0.16l-5.57,-0.34l-5.56,-0.07l0,0l-8.37,0.41l-1.44,0.31l-2.34,0.07l-40.04,-0.39l-10.1,-0.4l-10.12,-0.07l-0.91,0.3l-0.11,0.11l-2.1,0.32l-2.07,-0.01l-2.06,-0.34l-2.03,-0.67l-0.19,-0.22l0,0l-0.65,-0.35l-0.92,-0.05l-1.23,0.01l-0.97,0.44l-1.04,0.27l-1.03,0.02l-0.92,-0.18l-2.63,-0.8l-0.17,-0.03l-2.89,-0.84l-2.8,-1.29l-0.59,-1.21l0.67,-0.58l0.18,-0.46l-0.12,-0.23l-0.23,0.12l-1.13,0.69l-0.07,0.01l-0.89,-0.2l-6.73,-3.49l-2.45,-1.61l-1.23,-0.85l-1.39,-0.67l-0.53,-0.08l0.23,0.47l1.04,0.9l0.79,0.32l0.37,0.14l0.49,0.34l1.56,1.45l-0.23,0.18l-5.29,-3.47l-0.2,-0.29l0.14,-0.47l-2.31,-2.41l-0.11,-0.06l-0.15,0.08l0,0.01l-0.06,0.12l0.06,0.13l1.71,1.63l0.02,0.36l-0.17,0.25l-0.29,-0.06l-1.06,-0.78l-0.87,-0.92l-0.7,-1.05l-0.27,-1.37l-0.3,-0.47l-0.44,0.76l-0.33,0.14l0,0l-0.35,-0.29l-0.29,-0.77l-8.67,-10.19l-0.24,-0.41l-0.06,-0.52l0.44,-1.19l0.11,-0.34l-0.36,0.05l-0.8,0.63l-0.29,0.74l0.03,0.96l-3.17,-4.41l-0.07,-0.2l0.1,-0.2l0.21,-0.23l0.92,0.62l0.26,0.09l-0.03,-0.27l-0.21,-0.39l-0.96,-0.74l-0.54,-0.56l-0.1,-0.4l0,0l0.09,-0.12l-3.48,-6.86l-0.72,-0.08l-0.35,-0.25l0,0l-0.01,-0.4l0.29,-0.56l0.44,-0.4l0.04,-0.41l-0.18,-0.5l-0.01,-0.02l-0.22,-0.14l-0.24,0.07l-0.2,0.58l-0.03,0.18l-0.12,0.14l-0.29,0.09l-0.18,-0.25l-1.39,-4.84l0,-0.22l0.13,-0.16l0.22,-0.08l0.11,0.01l0.31,-0.3l-0.56,-0.38l-0.82,-0.88l-0.25,-0.82l-1.09,-5.98l-0.08,-1.04l0.2,-0.94l0,0l0.35,-0.68l0.36,-2.01l0.01,-1.99l-0.41,-2.22l-0.19,-0.33l-0.05,-0.57l0.24,-0.67l0.5,-2.57l-0.26,-2.35l-0.34,-0.93l-0.15,-1.46l0.05,-1.7l0.67,-4.08l0.51,-1.45l0.73,-0.84l0.48,-0.19l0.22,-0.27l0,0l0,0l-0.09,-0.43l-0.47,-0.54l-0.07,-1.18l0.32,-0.63l0.6,-0.56l1.08,-0.83l0.54,-0.97l0,0l0.04,-0.98l-0.37,-1.09l0.38,-2.13l0.73,-1.95l1.08,-1.75l1.42,-1.58l1.12,-0.64l0.32,-0.45l2.99,-4.97l3.11,-4.11l0.01,-0.02l0,-0.05l-0.08,-0.24l0.21,-0.2l0.08,-0.21l0,-0.02l-0.06,-0.23l-0.18,-0.19l0.32,-0.58l0.72,-0.79l0.11,-0.05l0.42,0.82l0.48,-0.31l-0.04,-0.71l0.2,-0.75l0.84,-1.18l1.46,-0.94l0.61,0.08l0.46,-0.15l0.09,-0.07l0.15,-0.26l-0.17,-0.26l-0.39,-0.16l-0.14,-0.24l1.37,-0.96l0.31,0.01l0.29,-0.24l0.2,-0.5l1.03,-1.37l0.86,-0.64l0.24,0.54l-0.54,0.45l-0.25,0.4l0.18,0.43l0.54,0.47l0.21,0.11l0.27,0.06l-0.07,-0.27l-0.21,-0.73l0.11,-0.58l0.34,-0.58l0.83,-1.35l1.07,-1.04l0,0l1.91,-0.91l-0.99,1.14l-0.22,0.37l0.41,-0.11l0.22,-0.12l0.95,-1.05l0.53,-0.87l0.42,-0.25l0.23,0.17l-0.22,0.62l0.2,-0.17l3.87,-2.19l0.44,-0.58l0.78,-0.2l0.16,-0.02l0.76,-0.51l1.26,-0.39l0.7,-0.08l0.58,-0.26l0,0l0.49,-0.52l0.58,-0.38l0.19,-0.4l1.16,-1.02l1.06,-0.26l0,0l0.3,0.07l-0.13,0.68l0.1,0.05l0.19,0l0.37,-0.57l0.15,-0.57l0.5,-0.4l0.84,-0.18l0.1,0.55l0.34,0.18l0.61,-0.11l0.05,-0.05l0.08,-0.24l-0.19,-0.16l-0.99,-0.17l2.95,-1.1l1.38,-0.23l1.32,-0.01l3.01,0.18l1.04,-0.16l0,0l0,0l-0.48,-0.32l-1.5,-0.49l1.76,-0.65l2.01,-0.39l0.17,0.35l0.39,0.52l0.45,0.23l0,0l0.53,-0.08l0.58,-0.41l0,-0.01l0,0l0,-0.41l0.32,-0.57l2.19,-0.55l2.1,0.05l0.53,0.11l0.23,0.59l0.21,0.02l0.2,-0.11l0.1,-0.39l0.48,-0.65l0.6,-0.09l0.62,0.42l0.58,0.1l0.05,-0.01l0.45,-0.23l0.4,-0.54l1.16,-2.43l0.65,-2l0.04,-0.18l0.09,-2.22l-0.55,-2.35l-0.27,-0.94l0.04,-2.02l0.83,-2.17l0.12,1.55l0.01,0.82l0.19,0.48l0.23,0.13l0.14,-0.23l0.17,-1.03l0,0l0.02,-1.8l-0.35,-1.84l-0.32,-1.3l0.23,-0.95l0.61,-0.95l0.05,0.5l0.2,0.3l0,0l0.02,0.01l0.07,0.04l0.33,-0.02l0.19,-0.27l-0.09,-0.66l-0.53,-0.42l-0.26,-0.86l0.05,-0.78l0.52,-0.86l0.71,-0.01l0.48,-0.29l0.19,-0.33l0,0l0,0l-0.13,-0.42l-0.5,-0.47l-0.13,-0.38l0,0l0.08,-0.99l0.63,-1.1l0.11,-0.05l0.21,0l0.28,-0.11l0.13,-0.18l0.02,-0.19l-0.18,-0.1l-0.21,-0.15l-0.39,-0.02l0.56,-1.86l0.82,-1.71l0.21,-0.35l0.48,0.08l0.07,-0.01l0.03,-0.03l0.13,-0.22l0.91,-1.08l0.52,-1.19l0.13,-1.29l-0.31,-1.16l0,0l0.09,-0.83l0.36,-0.84l1.49,-1.71l0.53,-0.4l0.55,-0.73l0.36,-0.94l1.51,-4.39l0.42,0.05l0.67,-0.54l0.7,-0.81l0.95,-1.44l0.74,-1.6l0.69,-1.18l0.72,-0.74l0.46,-0.82l0.35,-0.3l0.19,-0.96l-0.1,-0.11l2.09,-1.7l1.58,-1.99l0.27,-0.21l0.3,-0.69l-0.04,-1l0.66,-0.56l0.04,0.88l0.3,0.23l0.05,0l0.27,-0.05l0.19,-0.13l0.06,-0.25l0.04,-0.53l0,0l0.31,-0.67l0.62,-0.6l0.18,-0.14l1.46,-1.46l1.13,-1.87l7.27,-7.14l0.17,-0.07l0.14,0.11l0.13,0.29l-1.13,1l-0.92,1.13l-0.17,0.38l0.39,-0.15l1,-0.89l0.51,-0.53l0.61,-0.63l0.31,-0.6l0.72,-0.02l0.52,-0.2l0.76,-0.48l0.6,-0.6l0,0l0.29,-0.44l0.33,-0.85l0.69,-0.63l1.05,-0.39l-0.61,0.57l-0.2,0.48l0.1,0.26l0.27,-0.09l4.44,-3.47l1.53,-1.2l1.71,-1.04l1.88,-0.88l2.07,-0.73l0.67,0.07l0.11,0.26l1.05,0.39l1,0.03l0,0l0,0l0.81,-0.27l0.77,-0.55l0.4,-0.17l0.21,0.37l0.01,0.52l-0.28,0.71l-0.61,0.65l-0.08,0.09l-0.03,0.35l0.26,0.23l0.79,0.08l0.6,-0.19l0.35,-0.67l0,-2.7l-0.15,-0.46l-0.47,-0.15l-0.46,0.01l-0.33,-0.31l-0.49,0.33l-0.87,0.09l-0.52,-0.04l1.74,-0.54l1.61,-0.76l0.18,-0.04l0.03,0.03l0.1,0.27zm-8.6828,4.542l-0.2666,-0.2761l-0.595,-0.0745l-0.5749,0.1707l-0.2179,0.3159l0.2666,0.2761l0.595,0.0745l0.5749,-0.1707l0.2179,-0.3159zm-22.3072,16.918l-0.17,0.11l-0.02,0.04l0,0.13l0.12,0.07l0.13,-0.02l0.1,-0.2l-0.04,-0.12l-0.12,-0.01zm-0.631,3.4553l-0.1157,-0.4175l-0.5804,-0.7092l-0.7051,-0.5853l-0.4168,-0.1186l0.1157,0.4175l0.5804,0.7092l0.7051,0.5853l0.4168,0.1186zm-18.389,23.0047l0.99,-0.14l0.32,-0.32l-0.57,-0.22l-0.93,0.1l-0.26,0.01l-0.07,0.08l-0.03,0.08l0.02,0.19l0.17,0.21l0.36,0.01zm-3.1596,7.9403l0.2804,-0.1868l0.2214,-0.5521l0.0326,-0.5939l-0.1752,-0.2878l-0.2804,0.1868l-0.2214,0.5521l-0.0326,0.5939l0.1752,0.2878zm55.1753,0.1687l0.0875,-0.4694l-0.3537,-0.6625l-0.5877,-0.4675l-0.4775,0.0014l-0.0875,0.4694l0.3537,0.6625l0.5877,0.4675l0.4775,-0.0014zm-67.5162,30.4585l-0.2982,-0.3297l-0.6972,-0.1175l-0.6879,0.1635l-0.2757,0.3487l0.2982,0.3297l0.6972,0.1175l0.6879,-0.1635l0.2757,-0.3487zm-12.2015,2.0239l-0.2662,-0.2791l-0.6011,-0.0813l-0.5839,0.1642l-0.2248,0.3134l0.2662,0.2791l0.6011,0.0813l0.5839,-0.1642l0.2248,-0.3134zm103.512,14.8486l-0.05,0.14l0.04,0.15l0.13,0.12l0.2,-0.01l0.23,-0.19l-0.14,-0.52l-0.41,0.31zm4.91,8.14l-0.01,0.1l0.13,0.2l0.24,0l0.15,-0.13l0.05,-0.09l0.01,-0.03l-0.19,-0.31l-0.19,0.02l-0.19,0.24zm6.4846,3.378l-0.1365,-0.6517l-0.733,-1.3115l-0.8999,-1.203l-0.5398,-0.3898l0.1365,0.6517l0.733,1.3115l0.8999,1.203l0.5398,0.3898zm3.1893,3.9134l0.0423,-0.2499l-0.1663,-0.2391l-0.2776,-0.0882l-0.2262,0.1144l-0.0423,0.2499l0.1663,0.2391l0.2776,0.0882l0.2262,-0.1144zm6.8971,5.9063l-0.0561,-0.368l-0.4514,-0.5259l-0.5823,-0.3759l-0.3722,-0.0056l0.0561,0.368l0.4514,0.5259l0.5823,0.3759l0.3722,0.0056zm-168.521,0.0623l0.37,-0.4l-0.03,-0.21l-0.22,-0.14l-0.32,0.05l-0.29,0.24l-0.07,0.3l0.03,0.06l0.53,0.1zm173.19,9.99l0.05,0.03l0.42,-0.11l0,-0.29l-0.06,-0.02l-0.41,0l-0.11,0.23l0.11,0.16zm-177.2778,4.4345l0.2917,-0.0397l0.2777,-0.3178l0.101,-0.4098l-0.1348,-0.2617l-0.2917,0.0397l-0.2777,0.3178l-0.101,0.4098l0.1348,0.2617zm-1.0122,3.6655l-0.46,1.43l-0.01,0.02l-0.21,0.53l0.37,-0.09l0.47,-0.63l0.51,-1.57l-0.13,-1.73l-0.15,-0.28l-0.17,0.27l-0.22,2.05zm225.76,14.68l-0.12,-0.29l-0.29,-0.12l-6.82,0l-0.29,0.12l-0.12,0.29l0,0.04l0.12,0.29l0.29,0.12l6.82,0l0.29,-0.12l0.12,-0.29l0,-0.04zm-225.63,5.31l0,0.97l0.2,0.66l0.22,0.18l0.15,-0.24l0.09,-0.83l-0.43,-1.27l-0.32,-0.19l-0.13,0.05l-0.04,0.04l-0.11,0.3l0.08,0.28l0.29,0.05zm0.79,4.19l0.22,0.75l0.17,0.1l0.3,-0.33l0.09,-0.74l-0.19,-0.63l-0.19,-0.12l-0.24,0.18l-0.16,0.79zm186.32,3.66l0.12,0.11l0.13,-0.09l0.07,-0.17l-0.04,-0.16l-0.2,-0.17l-0.14,0.1l0.06,0.38zm-184.7609,2.0302l0.2324,-0.2239l0.0324,-0.4442l-0.1867,-0.4045l-0.2963,-0.1278l-0.2324,0.2239l-0.0324,0.4442l0.1867,0.4045l0.2963,0.1278zm184.7909,2.5098l-0.18,0.23l0,0.22l0.29,0.25l0.23,-0.07l0,-0.52l-0.31,-0.13l-0.03,0.02zm-177.19,13.52l0.48,0.17l0.2,-0.06l0.07,-0.21l-0.04,-0.15l-0.71,-0.34l-0.13,0.09l0.13,0.5zm3.89,2.8l-0.05,0.22l0.16,0.16l0.1,0.01l0.12,-0.04l0.21,-0.25l0.02,-0.26l-0.31,-0.02l-0.25,0.18zm187.9897,4.0427l-0.6035,-0.3631l-1.4683,-0.1695l-1.4729,0.1233l-0.6147,0.3439l0.6035,0.3631l1.4683,0.1695l1.4729,-0.1233l0.6147,-0.3439zm40.8703,-0.0327l-0.12,-0.28l-0.28,-0.12l-0.28,0.12l-0.12,0.28l0.12,0.28l0.28,0.12l0.28,-0.12l0.12,-0.28zm-221.1448,3.3852l-0.2352,-0.5352l-0.8679,-0.9921l-0.9921,-0.8679l-0.5352,-0.2352l0.2352,0.5352l0.8679,0.9921l0.9921,0.8679l0.5352,0.2352zm9.1842,7.9805l0.4751,-0.0592l0.2061,-0.4322l-0.4751,0.0592l-0.2061,0.4322zm156.3506,4.3143l-0.18,0.32l0.04,0.17l0.17,0.17l0.23,-0.05l0.12,-0.11l0.08,-0.31l-0.02,-0.1l-0.19,-0.16l-0.25,0.07zm2.92,2.12l-0.09,0.11l-0.03,0.3l0.15,0.19l0.24,0.02l0,0l0.04,-0.02l0.27,-0.3l-0.07,-0.51l-0.51,0.21zm3.03,0.05l0.02,0.8l0.03,0.09l0.16,0.09l0.12,0l11.36,-0.47l3.48,-0.27l1.22,-0.24l0,0l0,-0.04l0,0l-1.23,-0.19l-3.49,-0.09l-11.37,0.14l-0.12,0l-0.18,0.18zm-149.01,1.47l1.21,-0.02l0.14,-0.24l-0.09,-0.24l-0.06,-0.04l-0.91,-0.1l-0.42,0.36l-0.02,0.04l0.15,0.24zm143.98,0.44l-0.02,0.01l-0.14,0.23l0.02,0.24l0.24,0.05l0.28,-0.09l0.13,-0.51l-0.51,0.07zm-141.08,0.24l0.04,0.27l0.37,0.1l0.24,-0.2l-0.02,-0.26l-0.37,-0.13l-0.26,0.22zm4.3743,0.9711l-0.2402,-0.2616l-0.5062,-0.0562l-0.4757,0.182l-0.1665,0.3136l0.2402,0.2616l0.5062,0.0562l0.4757,-0.182l0.1665,-0.3136zm160.7857,2.0689l0.08,0.09l0.14,-0.03l0.09,-0.17l0,-0.02l-0.14,-0.13l-0.06,0.01l-0.11,0.25zm-35.16,1.09l0.23,0.15l0.14,0.01l0.09,-0.06l0.09,-0.27l-0.06,-0.12l-0.32,-0.09l-0.21,0.2l0.04,0.18z" fill="#b6e4fb"/>
  <path id="svg_62" d="m143.94,180.2l-0.5,0.88l-0.66,0.65l0,0l-0.76,0.41l-0.91,0.2l0.86,-0.91l0.97,-0.73l0,0l1,-0.5z" fill="#2c5692"/>
  <path id="svg_63" d="m174.01,180.9l-0.82,0.02l0.49,-0.33l0.33,0.31z" fill="#2c5692"/>
  <path id="svg_64" d="m171.8,180.97l0.52,0.04l-0.94,0.86l-1.54,0.76l-0.11,-0.26l-0.67,-0.07l2.74,-1.33z" fill="#42acde"/>
  <path id="svg_65" d="m432.07,183.11l-0.23,0.11l0,0l-0.62,-0.13l-0.73,-0.65l1.58,0.67z" fill="#2c5692"/>
  <path id="svg_66" d="m435.21,184.92l-1.38,-0.44l-1.68,-1.22l1.57,0.68l1.49,0.98z" fill="#2c5692"/>
  <path id="svg_67" d="m138.97,183.88l0.11,0.17l-0.17,0.31l-5.92,5.65l-5.42,5.96l-4.91,6.27l-4.4,6.59l0,0l-4.04,7.17l-3.5,7.51l-2.95,7.85l-2.4,8.18l-0.44,0.67l-0.2,0.07l1.71,-6.51l2.15,-6.38l2.61,-6.34l3.01,-6.15l3.46,-6.07l3.83,-5.82l4.24,-5.63l4.56,-5.33l3.98,-4.03l4.69,-4.14z" fill="#2c5692"/>
  <path id="svg_68" d="m212.81,189.29l-0.29,-0.88l0.13,-0.45l0.35,0.67l-0.19,0.66z" fill="#2c5692"/>
  <path id="svg_69" d="m441.8,188.95l-0.74,-0.24l-0.33,-0.53l1.07,0.77z" fill="#2c5692"/>
  <path id="svg_70" d="m443.23,189.99l-0.57,-0.17l-0.45,-0.59l0.83,0.44l0.19,0.32z" fill="#2c5692"/>
  <path id="svg_71" d="m155.36,190.25l-0.94,0.89l-0.27,0.65l-0.52,0.2l-0.72,0.02l0.39,-0.77l0.54,-0.62l1.33,-0.74l0.12,0l0.07,0.1l0,0.27z" fill="#2c5692"/>
  <path id="svg_72" d="m216.1,196.08l-1.55,-1.22l-1.08,-1.48l0,0l0,0l-0.59,-1.64l-0.16,-1.86l1.12,2.87l1.01,1.72l1.25,1.61z" fill="#2c5692"/>
  <path id="svg_73" d="m444.79,190.97l-0.68,-0.18l-0.53,-0.35l0,0l-0.35,-0.45l0.41,0.12l1.15,0.86z" fill="#2c5692"/>
  <path id="svg_74" d="m448.27,193.64l-1.13,-0.55l-1.05,-0.8l-0.92,-1.03l0.95,0.53l1.13,0.84l1.02,1.01z" fill="#2c5692"/>
  <path id="svg_75" d="m350.71,192.05l-0.3,1.35l-0.6,1.13l-0.91,0.94l-1.22,0.72l3.03,-4.14z" fill="#2c5692"/>
  <path id="svg_76" d="m306.78,196.64l-3.48,0.96l-3.38,0.49l-3.28,0.03l-3.17,-0.45l0,0l0,0l-2.76,-0.8l-2.67,-1.17l-2.6,-1.55l-2.51,-1.92l2.72,1.74l2.79,1.41l2.85,1.06l2.91,0.72l0,0l0,0l0,0l2.72,0.36l2.77,0.07l3.54,-0.49l3.55,-0.46z" fill="#2c5692"/>
  <path id="svg_77" d="m313.04,193.59l-2.31,1.59l-1.93,0.79l1.14,-0.94l1.24,-0.74l1.86,-0.7z" fill="#2c5692"/>
  <path id="svg_78" d="m376.84,413.98l-32.09,-0.02l-1.45,0.21l-1.06,0.62l-0.15,0.15l-0.5,0.31l1.34,-2.66l0.65,-2.56l-0.05,-2.36l-0.29,-1.08l-0.49,-1l-1.16,-1.4l-1.66,-1.1l-2.05,-0.72l-2.51,-0.37l-9.68,-9.9l16.76,0.2l10.24,-0.11l1.55,-0.21l1.39,-0.5l1.43,-0.89l1.17,-1.17l0.94,-1.47l0.62,-1.61l0.26,-1.7l-0.1,-1.69l-0.45,-1.52l-0.81,-1.38l-1.31,-1.26l-1.76,-0.93l-2.64,-0.52l-4.18,-0.16l-55.15,-0.17l5.3,-11.99l-0.17,-0.48l-0.15,-0.31l-0.34,-0.14l-0.83,-0.07l-0.08,-0.22l-0.01,-0.03l0.03,-0.12l0.1,-0.03l54.5,0.06l2.5,-0.29l2.1,-0.91l0,0l1.46,-1.25l1.17,-1.69l0.54,-1.26l0.31,-1.26l0.09,-1.35l-0.16,-1.31l-0.39,-1.25l-0.6,-1.16l-0.8,-1.03l-0.99,-0.87l-1.01,-0.63l-1.13,-0.46l-2.36,-0.34l-25.24,0.03l-25.24,-0.17l-0.52,-0.23l0.18,0.06l-1.32,-12.44l42.52,0.1l7.75,-0.3l2.72,-0.41l1.96,-0.57l1.73,-0.84l1.61,-1.01l0,0l1.81,-1.49l1.63,-1.76l1.43,-2.03l1.25,-2.29l5.46,-13.06l1.82,-4.07l1.98,-3.68l2.16,-3.29l2.33,-2.91l5.79,-5.78l5.56,-5.51l4,-4.51l3.76,-4.62l3.5,-4.71l3.25,-4.82l3,-4.92l2.75,-5.02l2.49,-5.12l2.25,-5.22l0,0l0,0l0,0l0,0l2.28,-6.15l1.94,-6.28l1.61,-6.41l1.27,-6.55l0.94,-6.68l0.61,-6.82l0.27,-6.95l-0.06,-7.09l0.01,-0.09l0.2,-0.25l0.33,0l7.01,3.8l6.58,4.4l6.21,5.05l5.7,5.58l5.23,6.15l4.67,6.6l4.08,7.02l3.47,7.39l2.45,6.42l2.1,6.67l0.32,0.69l0.51,0.56l0.65,0.38l0.74,0.17l10.03,0.69l4.22,0.46l4.17,0.71l0,0l0,0l6.3,1.56l6.18,2.14l6.06,2.71l5.95,3.28l4.27,2.8l3.98,3.04l3.71,3.29l3.43,3.54l3.66,4.38l3.28,4.55l2.89,4.73l2.5,4.91l0,0l0,0l1.79,4.21l1.52,4.34l1.25,4.46l0.99,4.58l0.92,7.17l0.16,7.2l-0.61,7.27l-1.37,7.18l-2.11,7.06l-2.84,6.83l-3.5,6.45l-4.16,6.1l-2.61,3.22l-2.77,3.04l-3.01,2.93l-3.17,2.73l-3.33,2.56l-3.46,2.34l-3.6,2.15l-3.71,1.93l-3.85,1.73l-3.94,1.51l-4.04,1.29l-4.11,1.06l-4.13,0.81l-4.18,0.59l-4.22,0.35l-4.26,0.11l-98.26,-0.01l-1.72,0.11l-1.55,0.33l-1.37,0.55l-1.19,0.78l0,0l0,0l-0.63,0.56l-0.81,0.99l-0.57,1.08l0,0l-0.44,1.8l0.08,2l0.56,1.9l0,0l0,0l0.7,1.22l0.93,1.12l1.19,1.02l1.42,0.9z" fill="#42acde"/>
  <path id="svg_79" d="m452.76,197.43l-0.95,-0.51l-0.76,-0.67l0,0l-0.57,-0.81l2.28,1.99z" fill="#99dd50"/>
  <path id="svg_80" d="m344.31,197.37l-0.35,0.06l-1.51,0l0.63,-0.45l0.58,0.03l0.65,0.36z" fill="#2c5692"/>
  <path id="svg_81" d="m454.21,198.67l-0.47,-0.12l-0.44,-0.32l-0.34,-0.53l1.25,0.97z" fill="#2c5692"/>
  <path id="svg_82" d="m173.6,200.92l0.14,0.53l-0.01,0.33l-0.98,0.72l-0.21,-0.05l0.41,-1.01l0.59,-0.5l0.06,-0.02z" fill="#42acde"/>
  <path id="svg_83" d="m464.23,209.4l-5.16,-5.92l5.16,5.92z" fill="#2c5692"/>
  <path id="svg_84" d="m139.29,204.26l0.04,1l-0.3,0.69l-0.27,0.21l-0.91,0.55l-1.05,0.94l0,-0.18l0,0l0.17,-0.81l0.47,-0.81l0.78,-0.8l1.07,-0.79z" fill="#2c5692"/>
  <path id="svg_85" d="m187.99,206.4l0.7,4.06l0.49,4.16l1.02,8.22l1.6,6.88l2,6.69l2.41,6.49l2.8,6.3l0,0l0,0l2.99,5.72l3.35,5.55l3.69,5.39l4.05,5.21l2.71,3.04l4.21,4.26l4.45,4.51l-0.7,-0.44l-2.05,-1.51l-1.88,-1.78l-3.94,-4.29l-3.77,-4.43l-5.52,-7.27l-4.8,-7.54l-4.09,-7.8l-3.38,-8.06l0,0l0,0l0,0l-2.57,-7.98l-1.91,-8.22l-1.26,-8.46l-0.6,-8.7z" fill="#2c5692"/>
  <path id="svg_86" d="m288.27,214.97l-1.89,-2.12l-1.11,-1.3l-0.85,-0.74l-1.46,-0.68l-1.19,-0.26l-1.27,-0.02l-2.33,0.7l-2.33,0.81l1.75,-1.12l1.66,-0.72l1.59,-0.31l1.51,0.09l0,0l0,0l0,0l0,0l1.64,0.6l1.53,1.15l1.43,1.69l1.32,2.23z" fill="#2c5692"/>
  <path id="svg_87" d="m311.72,209.59l0.82,0.26l0.5,-0.35l1.14,0.24l0,0l1.62,0.59l1.53,0.9l1.55,2.7l0.72,1.59l0.22,1.52l-0.24,1.69l-0.69,1.85l-1.15,2.02l-5.28,5.71l-1.9,1.67l-1.74,1.8l0,0l-2.66,3.42l-4.11,4.53l-1.59,1.05l-0.83,1.24l-0.05,0.18l0.12,1.15l0.83,1.31l3.61,3.97l6.33,6.1l5.73,5.76l4.03,4.28l1.27,1.88l0.52,1.93l0,0l0,0l-0.03,1.05l-0.24,1.06l-1.12,2.14l-1.48,1.76l0,0l-1.9,1.42l-2.28,1.02l-1.74,-0.18l-1.6,-0.51l0,0l-1.85,-1.16l-1.61,-1.7l-19.42,-20.18l-0.51,-0.28l-0.17,0.56l0.24,18.4l-0.35,0.42l-0.83,1.65l-1.82,1.25l-1.78,0.84l-1.72,0.42l-1.68,0.01l0,0l-1.19,-0.26l-1.16,-0.47l-2.25,-1.62l-0.84,-1.51l-0.16,-0.32l-0.25,-0.18l-0.13,-57.43l1.52,-3.02l0.29,-0.35l-0.12,-0.05l2.33,-0.81l2.33,-0.7l1.27,0.02l1.19,0.26l1.46,0.68l0.85,0.74l1.11,1.3l1.89,2.12l0.1,4.22l-0.19,12.11l-0.05,0.74l-0.15,0.66l0.16,0.4l0.41,-0.13l0.48,-0.38l1.21,-1.38l0.89,-1.74l3.66,-4.1l2.74,-2.39l2.53,-2.58l0,0l3.43,-4.3l2.95,-3.2l2.93,-2.53l1.01,-0.51l1.34,-0.27z" fill="#000000"/>
  <path id="svg_88" d="m313.04,209.5l-0.5,0.35l-0.82,-0.26l0.59,-0.14l0.73,0.05z" fill="#2c5692"/>
  <path id="svg_89" d="m135.19,209.96l-0.19,0.96l-0.35,0.3l-1.15,0.87l-0.26,-0.1l-0.01,-0.01l-0.08,-0.16l0.05,-0.19l1.06,-1.16l0.93,-0.51z" fill="#2c5692"/>
  <path id="svg_90" d="m251.52,210.06l6.8,0.82l1.59,1.25l1.16,1.48l0.72,4.6l0.08,-0.01l-0.14,0.53l-1.07,1.66l-1.01,1.56l-0.99,0.99l-1.04,0.63l-1.37,0.47l-11.31,0.1l-16.32,-0.08l-0.58,0.12l-0.5,0.33l-0.32,0.5l-0.1,0.58l0,0l0,0l0,0.04l0.58,10.49l24.82,-0.06l1.65,0.15l1.49,0.35l1.34,0.55l1.18,0.76l0,0l0,0l0.94,0.85l0.81,1.01l0.95,1.87l0.23,1.82l0,0l-0.21,1.1l-1.18,2.48l-1.78,2.01l-0.73,0.46l-0.94,0.33l-2.5,0.22l-8.65,-0.07l-8.66,0.15l-0.43,0.25l-0.14,0.54l0.19,0.52l0.47,0.6l0,0l1.69,1.71l1.97,1.47l0.19,0.37l0,0l0.81,0.81l1.27,0.53l2.77,1.71l1.57,0.97l1.87,0.78l2.25,0.59l3.03,0.53l0.51,0.08l2.53,0.62l1.64,0.91l1.75,2.03l0.55,1.08l0.34,1.12l0.06,2.3l-0.28,1.26l-0.48,1.17l0,0l-1.08,1.59l-1.51,1.37l-0.94,0.54l-1.09,0.38l-2.65,0.26l-2.63,-0.17l-2.32,-0.38l-3.12,-0.81l-3.04,-1.01l0,0l0,0l0,0l-3.39,-1.43l-3.29,-1.7l-3.18,-1.97l-3.08,-2.25l-2.23,-1.72l0,0l-1.52,-1.53l-1.36,-1.7l-6.11,-8.7l-0.07,-0.1l-2.16,-3.8l-1.55,-4.23l-0.95,-4.63l-0.34,-5.06l0.13,-19.64l0.44,-0.31l0,0l0.43,-0.76l0.1,-1.09l1.17,-1.2l1.22,-0.91l1.26,-0.64l1.3,-0.35l0,0l0,0l0.97,-0.08l31.52,0.04z" fill="#000000"/>
  <path id="svg_91" d="m258.32,210.88l-6.8,-0.82l2.13,-0.17l1.85,0.08l1.55,0.33l1.27,0.58z" fill="#2c5692"/>
  <path id="svg_92" d="m479.28,234.3l-4.88,-9.33l-1.98,-3.44l-2.37,-3.64l-4.61,-6.91l4.21,5.37l3.7,5.66l0,0l0,0l3.22,5.99l2.71,6.3z" fill="#2c5692"/>
  <path id="svg_93" d="m317.74,222.6l1.15,-2.02l0.69,-1.85l0.24,-1.69l-0.22,-1.52l-0.72,-1.59l-1.55,-2.7l1.56,1.57l0.6,1.05l0.42,1.17l0.3,2.73l-0.29,1.96l-0.79,1.59l0,0l-1.39,1.3z" fill="#2c5692"/>
  <path id="svg_94" d="m275.67,211.76l-1.52,3.02l0.09,-1l0.32,-0.86l1.11,-1.16z" fill="#2c5692"/>
  <path id="svg_95" d="m213.11,215.36l0.13,-0.78l0.84,-1.38l-0.1,1.09l-0.43,0.76l-0.44,0.31z" fill="#2c5692"/>
  <path id="svg_96" d="m132.65,213.46l-2.26,4.35l-0.67,0.54l-0.42,-0.05l0.13,-0.5l0,0l0.48,-1.18l0.7,-1.12l2.04,-2.04z" fill="#2c5692"/>
  <path id="svg_97" d="m174.51,217.88l-0.16,-0.04l0,0l-0.26,-0.28l-0.13,-0.53l-0.16,-0.98l-0.16,-1.18l0.11,-1.11l0,0l0.09,-0.34l0.56,1.33l0.24,1.51l-0.13,1.62z" fill="#2c5692"/>
  <path id="svg_98" d="m261.07,213.61l0.72,1.17l0.34,1.77l-0.01,0.66l-0.26,0.92l-0.07,0.08l-0.72,-4.6z" fill="#2c5692"/>
  <path id="svg_99" d="m173.96,217.03l-0.29,-0.21l-0.07,0.06l0.05,-0.06l0.15,-0.77l0.16,0.98z" fill="#000000"/>
  <path id="svg_100" d="m303.49,216.1l-3.43,4.3l-2.53,2.58l-2.74,2.39l2.11,-2.74l2.29,-2.56l0,0l4.3,-3.97z" fill="#99dd50"/>
  <path id="svg_101" d="m262.12,217.21l0.01,-0.66l-0.01,0.66z" fill="#000000"/>
  <path id="svg_102" d="m261.73,218.73l-0.51,1.93l-0.93,1.6l0,0l-0.87,0.9l-1.06,0.75l-1.08,0.49l-1.28,0.36l-3.21,0.27l-24.2,-0.05l-0.39,0.13l-0.14,0.38l-0.36,10.63l-0.58,-10.49l0,-0.04l0.1,-0.58l0.32,-0.5l0.5,-0.33l0.58,-0.12l16.32,0.08l11.31,-0.1l1.37,-0.47l1.04,-0.63l0.99,-0.99l1.01,-1.56l1.07,-1.66z" fill="#2c5692"/>
  <path id="svg_103" d="m288.37,219.19l0.62,4.85l0.13,5.46l-0.13,0.82l-0.35,0.62l0,0l-0.46,0.36l0.19,-12.11z" fill="#99dd50"/>
  <path id="svg_104" d="m127.13,223.18l-0.65,0.99l-0.21,0.18l-0.25,-0.1l-0.01,-0.22l0.39,-0.93l0.37,-0.3l0,0l0.36,0.38z" fill="#2c5692"/>
  <path id="svg_105" d="m125.26,227.27l0.19,0.58l-0.36,-0.01l-0.17,-0.21l-0.02,-0.19l0.03,-0.08l0.07,-0.08l0.26,-0.01z" fill="#2c5692"/>
  <path id="svg_106" d="m176.27,228.46l-0.34,0.09l0,-0.8l0.02,-0.1l0.32,0.1l0,0.71z" fill="#2c5692"/>
  <path id="svg_107" d="m312.46,228.31l-6.3,6.89l2.66,-3.42l0,0l1.74,-1.8l1.9,-1.67z" fill="#2c5692"/>
  <path id="svg_108" d="m176.27,228.46l0.42,1.43l-0.01,1.36l-0.05,0.25l-0.71,-1.44l0.01,-1.51l0.34,-0.09z" fill="#42acde"/>
  <path id="svg_109" d="m124.1,229.73l-0.67,1.72l-0.27,1.41l-0.13,0.22l-0.03,0.03l-0.07,0.01l-0.48,-0.08l0.58,-2.29l0.44,-0.66l0.53,-0.34l0,0l0.1,-0.02z" fill="#2c5692"/>
  <path id="svg_110" d="m288.13,232.04l3,-2.57l-0.89,1.74l-1.21,1.38l-0.48,0.38l-0.41,0.13l-0.16,-0.4l0.15,-0.66z" fill="#2c5692"/>
  <path id="svg_111" d="m236.46,250.1l8.66,-0.15l8.65,0.07l2.5,-0.22l0.94,-0.33l0.73,-0.46l1.78,-2.01l1.18,-2.48l0.21,-1.1l-0.23,-1.82l-0.95,-1.87l-0.81,-1.01l-0.94,-0.85l0,0l-1.18,-0.76l-1.34,-0.55l-1.49,-0.35l-1.65,-0.15l2.3,-0.09l2.09,0.46l0,0l0.44,0.18l0.6,0.31l1.45,1.22l1.13,1.75l0.84,2.56l0.09,1.2l-0.14,1.16l0,0l-0.49,1.4l-0.85,1.31l-1.21,1.25l-1.57,1.16l-1.08,0.5l-1.48,0.35l-4.13,0.3l-12.75,-0.16l-0.6,-0.22l-0.7,-0.6z" fill="#99dd50"/>
  <path id="svg_112" d="m121.25,236.98l-0.25,0.73l-0.11,0.05l-0.03,-0.8l0.39,0.02z" fill="#2c5692"/>
  <path id="svg_113" d="m121.46,237.13l-0.19,0.34l-0.06,0.24l-0.21,0l0.25,-0.73l0.21,0.15z" fill="#000000"/>
  <path id="svg_114" d="m480.71,237.52l0.47,1.71l0.89,1.29l0,0l0.96,0.69l1.2,0.44l-1.38,0.15l-0.62,-0.22l0,0l-0.62,-0.57l-0.42,-0.9l-0.15,-0.55l-0.33,-2.04z" fill="#2c5692"/>
  <path id="svg_115" d="m302.05,239.73l-1.66,2.45l-0.25,1.06l0.51,0.97l5.23,5.08l4.59,5.44l-6.33,-6.1l-3.61,-3.97l-0.83,-1.31l-0.12,-1.15l0.05,-0.18l0.83,-1.24l1.59,-1.05z" fill="#99dd50"/>
  <path id="svg_116" d="m101.34,251.91l-0.56,-0.41l0.15,-0.06l0,0l0.67,-0.42l0.59,-0.61l0.37,-0.68l0.22,-0.93l0.77,-4.19l1.09,-4.15l0.15,0.37l0,0.38l-1.9,9.23l-0.41,0.92l0,0l-0.49,0.36l-0.65,0.19z" fill="#b6e4fb"/>
  <path id="svg_117" d="m120.04,240.79l-0.12,0.43l0.35,0.52l-0.71,0.01l0.26,-0.84l0.22,-0.12z" fill="#2c5692"/>
  <path id="svg_118" d="m496.07,243.56l-7.69,-1.56l7.69,1.56z" fill="#99dd50"/>
  <path id="svg_119" d="m180.66,244.59l-0.32,-0.53l-0.43,-1.23l0.07,-0.24l0.04,-0.06l0.06,0.01l0.5,0.45l0,0l0.21,0.69l-0.13,0.91z" fill="#2c5692"/>
  <path id="svg_120" d="m509,247.44l-10.86,-3.48l3.56,0.75l3.45,1.07l3.85,1.66z" fill="#99dd50"/>
  <path id="svg_121" d="m509.76,247.72l-0.74,-0.25l-0.02,-0.03l0.76,0.28z" fill="#2c5692"/>
  <path id="svg_122" d="m515.25,250.24l-2.43,-0.94l-1.65,-1.02l1.85,0.67l1.68,0.92l0.55,0.37z" fill="#2c5692"/>
  <path id="svg_123" d="m118.11,250.32l-0.03,1.12l-0.12,-1.55l0.15,0.43z" fill="#2c5692"/>
  <path id="svg_124" d="m516.91,250.99l-0.08,0.06l-0.01,0.05l-1.38,-0.68l-0.19,-0.18l0.17,0.03l1.49,0.72z" fill="#2c5692"/>
  <path id="svg_125" d="m516.91,250.99l9.58,5.73l-9.67,-5.62l0.01,-0.05l0.08,-0.06z" fill="#99dd50"/>
  <path id="svg_126" d="m100.78,251.5l0.56,0.41l-4.52,1.03l-4.39,1.22l-4.27,1.4l-4.14,1.59l-4.01,1.77l-3.88,1.97l-3.76,2.14l-3.63,2.34l0,0l0,0l0,0l-6.18,4.64l-5.77,5.24l-3.88,4.13l-3.55,4.31l-3.2,4.51l-2.86,4.7l0,0l-2.03,3.87l-1.82,3.98l-1.6,4.11l-1.39,4.22l-1.18,4.35l-0.96,4.47l-0.75,4.58l-0.53,4.71l0.28,-4.51l0.57,-4.47l0,0l1.54,-7.26l2.31,-7.14l3.07,-7.02l3.84,-6.89l3.34,-5.01l3.62,-4.69l3.91,-4.38l4.19,-4.05l0,0l0,0l5.32,-4.38l5.72,-3.94l6.12,-3.49l6.52,-3.05l4.45,-1.76l4.39,-1.48l4.31,-1.22l4.24,-0.95z" fill="#2c5692"/>
  <path id="svg_127" d="m224.16,261.52l-2.38,-2.46l-1.95,-2.71l0,0l-1.78,-3.53l6.11,8.7z" fill="#2c5692"/>
  <path id="svg_128" d="m308.17,273.48l-18.72,-18.22l-0.26,-0.07l-0.19,0.17l0,0l-0.02,0.12l0.21,4.23l-0.05,4.16l-0.29,4.09l-0.54,4.02l-0.24,-18.4l0.17,-0.56l0.51,0.28l19.42,20.18z" fill="#99dd50"/>
  <path id="svg_129" d="m242.48,256.9l-1.27,-0.53l-0.81,-0.81l-0.19,-0.37l2.27,1.71z" fill="#2c5692"/>
  <path id="svg_130" d="m116.93,255.67l0.12,2.79l0,0.76l-0.38,1.51l-0.89,1.65l1.15,-6.71z" fill="#b6e4fb"/>
  <path id="svg_131" d="m117.14,256.8l-0.01,1.74l-0.08,-0.08l-0.12,-2.79l0.21,1.13z" fill="#42acde"/>
  <path id="svg_132" d="m186.37,257.53l-0.78,0.32l-0.21,0.01l-0.13,-0.18l-0.03,-0.12l-0.01,-0.19l0.03,-0.08l0.08,-0.05l0.79,-0.44l0.26,0.73z" fill="#2c5692"/>
  <path id="svg_133" d="m527.31,257.21l-0.27,-0.04l-0.55,-0.45l0.22,0.09l0.6,0.4z" fill="#2c5692"/>
  <path id="svg_134" d="m533.49,261.95l-6.18,-4.74l6.18,4.74z" fill="#42acde"/>
  <path id="svg_135" d="m117.13,258.54l-0.08,0.68l0,-0.76l0.08,0.08z" fill="#000000"/>
  <path id="svg_136" d="m187.44,259.97l-0.65,-0.73l0.08,-0.77l0.53,1.12l0.04,0.38z" fill="#42acde"/>
  <path id="svg_137" d="m229.27,266.47l3.08,2.25l3.18,1.97l3.29,1.7l3.39,1.43l0,0l0,0l3.04,1.01l3.12,0.81l2.32,0.38l2.63,0.17l2.65,-0.26l1.09,-0.38l0.94,-0.54l1.51,-1.37l1.08,-1.59l0.48,-1.17l0.28,-1.26l-0.06,-2.3l-0.34,-1.12l-0.55,-1.08l-1.75,-2.03l-1.64,-0.91l-2.53,-0.62l-0.51,-0.08l-3.03,-0.53l-2.25,-0.59l-1.87,-0.78l-1.57,-0.97l4.54,1.47l4.62,0.95l1.84,0.24l1.08,0.52l2.1,1.45l0.89,0.77l0.7,0.88l0.72,1.46l0.36,1.6l0,1.8l-0.35,1.82l-0.39,1.04l-0.56,0.92l0,0l0,0l-1.34,1.3l-1.83,0.94l-3.54,0.96l-1.51,0.13l-1.34,-0.1l-4.12,-0.89l-4.11,-1.26l-4.1,-1.65l-4.09,-2.02l-2.95,-1.96l-2.6,-2.51z" fill="#2c5692"/>
  <path id="svg_138" d="m190.44,264.74l-0.19,0.19l-0.61,-0.1l-1.43,-3.63l1.09,1.24l0.8,1.38l0.34,0.92z" fill="#42acde"/>
  <path id="svg_139" d="m541.01,269.14l-2.52,-2.14l-1.87,-2.32l2.38,2.01l2.01,2.45z" fill="#42acde"/>
  <path id="svg_140" d="m107.23,265.48l-0.32,0.57l0,0.41l0,0l0,0.01l-0.28,-0.28l-0.71,-0.18l-0.96,0.2l-0.17,-0.35l1.42,-0.34l1.02,-0.04z" fill="#42acde"/>
  <path id="svg_141" d="m88.33,271.21l-0.34,0.8l-1.33,0.29l-0.48,0.4l0,0l0.04,0.17l-1.26,0.39l-0.12,-0.26l0.98,-1l1.11,-0.73l1.07,-0.41l0.27,0.03l0.06,0.32z" fill="#42acde"/>
  <path id="svg_142" d="m321.75,270.69l-0.83,2.46l-1.39,1.87l0,0l-0.92,0.73l-1.07,0.58l-2.57,0.7l2.28,-1.02l1.9,-1.42l0,0l1.48,-1.76l1.12,-2.14z" fill="#f19940"/>
  <path id="svg_143" d="m274.69,272.71l-0.19,0.24l-0.22,-0.74l0.25,0.18l0.16,0.32z" fill="#2c5692"/>
  <path id="svg_144" d="m84.29,273.21l-0.21,0.43l-0.04,0.15l-0.78,0.2l0.15,-0.74l0.63,-0.34l0.21,0.02l0.01,0.01l0.06,0.07l-0.03,0.2z" fill="#2c5692"/>
  <path id="svg_145" d="m274.69,272.71l0.84,1.51l2.25,1.62l1.16,0.47l1.19,0.26l0,0l0,0l0,0l1.68,-0.01l1.72,-0.42l1.78,-0.84l1.82,-1.25l-1.95,1.82l-1.05,0.6l-1.11,0.41l0,0l-1.6,0.22l-1.7,-0.16l-1.79,-0.54l-1.9,-0.91l-0.93,-0.95l-0.6,-1.59l0.19,-0.24z" fill="#b6e4fb"/>
  <path id="svg_146" d="m550.31,280.89l-5.78,-7.94l5.78,7.94z" fill="#2c5692"/>
  <path id="svg_147" d="m82.43,274.14l-1.25,0.97l-0.05,0.02l-0.33,-0.51l0.45,-0.31l1.18,-0.17z" fill="#2c5692"/>
  <path id="svg_148" d="m197.21,275.07l1.11,0.84l0.35,0.82l0,0l-0.15,0.49l-0.78,-0.85l-0.58,-0.19l-0.02,0.01l-0.03,-0.1l0.1,-1.02z" fill="#2c5692"/>
  <path id="svg_149" d="m78.97,276.31l-0.04,0.4l0.02,0.05l-0.2,0.17l0.22,-0.62z" fill="#000000"/>
  <path id="svg_150" d="m73.32,280.27l-0.11,0.08l-0.18,0.22l-0.24,-0.54l0.01,-0.03l0.19,-0.16l0.01,0l0.32,0.17l0,0.26z" fill="#2c5692"/>
  <path id="svg_151" d="m68.73,283.73l0.14,0.24l-0.32,0.23l-0.24,0.09l0.18,-0.35l0.24,-0.21z" fill="#2c5692"/>
  <path id="svg_152" d="m232.04,291.21l-0.9,-0.66l-0.72,-0.8l-0.69,-1.31l1.83,2l0.48,0.77z" fill="#2c5692"/>
  <path id="svg_153" d="m63.61,289.28l0.18,0.19l0.06,0.23l0,0.02l-0.08,0.21l-0.21,0.2l-1.7,1.45l-0.22,-0.33l0,0l0,0l0.06,-0.4l0.35,-0.46l1.56,-1.11z" fill="#42acde"/>
  <path id="svg_154" d="m245.12,316.4l-3.02,-6.5l-3.19,-6.37l-3.35,-6.23l-3.52,-6.09l2.23,2.78l2.86,4.71l2.59,4.84l0,0l0,0l2.91,6.33l2.49,6.53z" fill="#2c5692"/>
  <path id="svg_155" d="m557.03,293.35l2.01,3.89l2.01,5.94l1.59,6.04l0,0l1.11,5.87l0.72,5.95l-0.18,3.64l-0.72,-7.28l-1.26,-7.16l0,0l-1.02,-4.28l-1.22,-4.25l-1.42,-4.2l-1.62,-4.16z" fill="#2c5692"/>
  <path id="svg_156" d="m59.88,294.21l-0.22,0.51l-0.69,0.57l0.21,-0.87l0.32,-0.34l0.38,0.13z" fill="#2c5692"/>
  <path id="svg_157" d="m58.57,295.93l-0.67,1.64l-0.17,-0.34l0.23,-0.87l0.4,-0.4l0,0l0.21,-0.03z" fill="#2c5692"/>
  <path id="svg_158" d="m57.73,297.23l0.17,0.34l-1.63,2.75l-0.36,0.27l-0.27,0.01l-0.01,-0.26l0.62,-1.47l0,0l0.65,-0.88l0.83,-0.76z" fill="#42acde"/>
  <path id="svg_159" d="m54.59,304.29l-0.12,0.01l-0.25,0.39l-0.53,-0.1l-0.03,-0.06l0.07,-0.3l0.29,-0.24l0.32,-0.05l0.22,0.14l0.03,0.21z" fill="#2c5692"/>
  <path id="svg_160" d="m225.03,308.03l0.24,0.47l-0.09,-0.03l-0.36,0.05l-0.15,-0.29l0.36,-0.2z" fill="#99dd50"/>
  <path id="svg_161" d="m52.2,308.92l-0.06,0.79l0,0l-0.31,0.83l-0.57,0.77l-0.22,0.07l-0.05,-0.02l-0.1,-0.08l-0.01,-0.13l0.56,-1.46l0.76,-0.77z" fill="#42acde"/>
  <path id="svg_162" d="m564.47,321.04l0.34,3.7l0.11,3.89l-0.13,4.09l-0.36,4.28l-1.13,7.57l-1.7,7.24l-2.26,6.91l-2.82,6.58l-0.13,-0.16l0,0l-0.07,-0.39l0.14,-0.52l2.62,-6.55l2.11,-6.68l0,0l1.41,-5.9l1.02,-6.01l0.33,-0.91l0.4,-1.14l-0.02,-0.58l-0.18,-1.59l0.14,-10.19l0.18,-3.64z" fill="#99dd50"/>
  <path id="svg_163" d="m49.12,322.78l0.09,1.02l0.07,0.24l-0.47,0.63l-0.37,0.09l0.21,-0.53l0.01,-0.02l0.46,-1.43z" fill="#2c5692"/>
  <path id="svg_164" d="m48.12,329.72l0.13,1.02l0.24,0.33l-0.24,0.67l0.05,0.57l0.19,0.33l-0.43,5.86l-0.69,-3.45l-0.15,-3.42l0,0l0.49,-3.92l0.14,-0.29l0.17,0.28l0.16,0.92l-0.06,1.1z" fill="#2c5692"/>
  <path id="svg_165" d="m241.69,334.72l-0.52,0.04l-0.05,-0.03l-1.68,-0.86l-1.32,-1.15l1.77,0.55l0.95,0.62l0.85,0.83z" fill="#2c5692"/>
  <path id="svg_166" d="m53.64,385.86l-3.2,-3.37l-3.71,-4.96l-4,-6.48l-3.38,-6.94l-2.78,-7.39l-2.16,-7.85l-1.06,-5.94l-0.25,-5l0.94,6.78l1.43,6.58l1.9,6.37l2.39,6.16l0,0l0,0l2.78,5.81l3.25,5.61l3.69,5.41l4.16,5.21z" fill="#2c5692"/>
  <path id="svg_167" d="m49.48,342.24l-0.23,0.51l0,0.02l-0.29,-0.05l-0.08,-0.28l0.11,-0.3l0.04,-0.04l0.13,-0.05l0.32,0.19z" fill="#42acde"/>
  <path id="svg_168" d="m50.26,347.71l-0.22,-0.75l0.22,0.75z" fill="#000000"/>
  <path id="svg_169" d="m251.08,347.47l11.99,0.43l11.98,0.18l11.97,-0.06l11.96,-0.3l0.82,0.4l1.11,0.19l-0.18,-0.06l0.52,0.23l-55.31,0.34l1.29,-1.26l0.05,0.04l0.58,0.25l0.85,-0.06l0.69,0.32l0,0l0.81,-0.1l0.87,-0.54z" fill="#2c5692"/>
  <path id="svg_170" d="m245.94,348.82l55.31,-0.34l25.24,0.17l25.24,-0.03l2.36,0.34l1.13,0.46l1.01,0.63l0.99,0.87l0.8,1.03l0.6,1.16l0.39,1.25l0.16,1.31l-0.09,1.35l-0.31,1.26l-0.54,1.26l-1.17,1.69l-1.46,1.25l0,0l-2.1,0.91l-2.5,0.29l-54.5,-0.06l-0.1,0.03l-0.03,0.12l0.01,0.03l0.08,0.22l-0.39,0.2l-0.68,-0.25l-0.15,-0.01l-0.16,0.03l-0.26,0.48l-0.33,-0.5l-1.45,-0.12l-2.29,-0.13l-2.23,0.19l-0.58,0.11l-41.96,0.44l-1.33,-0.72l-1.38,-0.4l0,0l-1.66,-0.06l-0.75,-0.79l-0.86,-0.48l0,0l-0.2,-0.06l-0.23,-0.74l-0.86,-0.49l-0.1,-0.51l-0.58,-0.59l0.33,-0.28l-0.24,-0.58l-0.11,-0.46l0,0l-0.22,-1.86l0.15,-1.94l0.05,-0.79l0.83,-1.43l0.38,-0.47l0.05,-0.29l0,0l-0.28,-0.13l1.02,-0.93l0.77,-1.06l2.76,-0.63l2.42,0.05z" fill="#000000"/>
  <path id="svg_171" d="m238.97,351.39l0.28,0.13l0,0l-0.05,0.29l-0.38,0.47l-0.35,-0.36l0.5,-0.53z" fill="#2c5692"/>
  <path id="svg_172" d="m238.47,351.92l0.35,0.36l-0.83,1.43l-0.08,-1.04l0.28,-0.61l0.28,-0.14z" fill="#b6e4fb"/>
  <path id="svg_173" d="m238.03,359.62l-0.27,-0.33l0.36,-0.53l0.24,0.58l-0.33,0.28z" fill="#2c5692"/>
  <path id="svg_174" d="m56.66,363.98l-0.09,0.12l0,0l0.1,0.4l0.54,0.56l-0.08,0.29l-1.04,-0.7l-0.6,-0.88l-0.16,-1.18l0.16,0.31l0,0l0.48,0.6l0.69,0.48z" fill="#2c5692"/>
  <path id="svg_175" d="m245.98,364.46l0.05,0.1l0.43,0.32l-1.22,-0.04l-0.11,-0.24l-0.49,-0.23l-1.72,-0.38l-1.31,-0.71l1.66,0.06l0,0l1.38,0.4l1.33,0.72z" fill="#2c5692"/>
  <path id="svg_176" d="m293.04,363.85l-1.02,0.43l-4.08,-0.26l0.58,-0.11l2.23,-0.19l2.29,0.13z" fill="#2c5692"/>
  <path id="svg_177" d="m555.94,366.01l-2.95,5.89l-3.47,5.52l0,0l0,0l-3.61,4.69l-4.05,4.39l3.56,-4.49l3.37,-4.61l3.71,-5.6l3.44,-5.79z" fill="#99dd50"/>
  <path id="svg_178" d="m59.2,368.09l0,0.59l-0.13,-0.5l0.13,-0.09z" fill="#000000"/>
  <path id="svg_179" d="m60.69,371.2l1,1.01l-0.3,0.32l-0.5,-0.55l-0.2,-0.58l0,-0.2z" fill="#2c5692"/>
  <path id="svg_180" d="m61.69,372.21l0.74,0.75l0.27,0.77l0,0.05l-0.24,-0.09l-0.6,-0.45l-0.47,-0.71l0.3,-0.32z" fill="#42acde"/>
  <path id="svg_181" d="m292.65,377.01l55.15,0.17l4.18,0.16l2.64,0.52l1.76,0.93l1.31,1.26l0.81,1.38l0.45,1.52l0.1,1.69l-0.26,1.7l-0.62,1.61l-0.94,1.47l-1.17,1.17l-1.43,0.89l-1.39,0.5l-1.55,0.21l-10.24,0.11l-16.76,-0.2l-52.85,0.1l-28.82,0.17l-0.97,-0.52l-0.2,-0.1l-0.99,-0.28l-2.43,-2.61l-0.47,-1.97l-0.22,-1.7l0.04,-1.45l0.31,-1.18l1.24,-3.77l0.56,-0.23l0.1,0.15l0.23,-0.03l0.46,-0.24l2.02,-1.39l1.29,-0.11l1.11,-0.34l47.55,0.41z" fill="#000000"/>
  <path id="svg_182" d="m242.7,377.05l-2.02,1.39l-0.46,0.24l-0.23,0.03l-0.1,-0.15l0.81,-0.95l0.93,-0.5l1.07,-0.06z" fill="#b6e4fb"/>
  <path id="svg_183" d="m61.85,394.24l-5.91,-5.53l5.91,5.53z" fill="#2c5692"/>
  <path id="svg_184" d="m83.55,390.87l-1.05,-0.14l-1.24,-0.74l0.23,-0.18l1.04,0.41l1.02,0.65z" fill="#2c5692"/>
  <path id="svg_185" d="m538.29,390.35l-4.87,4.39l-5.09,3.94l-5.31,3.5l-5.54,3.06l0,0l0,0l-5.82,2.63l-6.05,2.18l-6.27,1.73l-6.5,1.27l8.7,-2.26l7.92,-2.64l7.15,-3.03l6.36,-3.42l5.83,-3.95l4.7,-3.75l4.79,-3.65z" fill="#2c5692"/>
  <path id="svg_186" d="m85.79,391.96l-0.76,-0.03l-0.53,-0.27l0,0l-0.29,-0.45l0.62,0.17l0.96,0.58z" fill="#2c5692"/>
  <path id="svg_187" d="m324.69,392.1l9.68,9.9l-12.22,11.65l-3.17,2.54l-3.71,2.17l-4.26,1.8l-4.8,1.44l-3.24,0.65l-3.19,0.35l-3.16,0.03l-3.11,-0.27l0,0l-3.01,-0.57l-4.27,-1.28l0,0l-3.32,-1.38l-3.2,-1.7l-3.09,-2.01l-2.98,-2.32l-3.79,-3.47l-4.42,-4.5l-1.65,-1.47l-1.79,-1.27l9.85,-10.19l52.85,-0.1z" fill="#2c5692"/>
  <path id="svg_188" d="m89.07,393.54l-0.12,0.23l-0.06,0.03l-0.05,0l-1.99,-0.97l-0.71,-0.56l1.22,0.31l1.71,0.96z" fill="#2c5692"/>
  <path id="svg_189" d="m90.93,393.54l0.59,1.21l-0.32,0.09l0,0l-0.78,-0.18l-0.85,-0.71l0.86,-0.13l0.5,-0.28z" fill="#2c5692"/>
  <path id="svg_190" d="m65.28,397.06l-1.78,-1.19l-1.56,-1.65l2.03,1.39l1.31,1.45z" fill="#2c5692"/>
  <path id="svg_191" d="m105.2,397.15l-1.23,0.01l1.23,-0.01z" fill="#2c5692"/>
  <path id="svg_192" d="m67.02,398.3l-0.78,-0.39l-0.28,-0.37l0.59,0.11l0.47,0.65z" fill="#2c5692"/>
  <path id="svg_193" d="m106.96,397.77l2.03,0.67l2.06,0.34l0,0l0,0l2.07,0.01l2.1,-0.32l0.22,0.27l0.22,0.06l9.9,0.11l10.9,-0.38l40.04,0.39l-2.02,0.64l-2.35,0.35l-7.73,0.47l-7.26,0.11l-6.8,-0.25l-6.32,-0.61l-2.2,-0.18l-1.8,0.07l-2.58,0.33l-9.81,0.2l-14.11,-0.01l-4.56,-0.43l-4.56,-0.77l-0.64,-0.18l-0.32,-0.32l0,0l0.01,-0.49l3.51,-0.08z" fill="#2c5692"/>
  <path id="svg_194" d="m219.18,398.56l0.08,0.1l0,0l0.59,0.23l0.92,-0.12l0.8,0.62l0.81,0.23l0,0l0.82,-0.16l0.69,0.77l-0.13,0.51l-0.03,0.02l-0.07,0.04l-0.38,-0.04l-0.38,-0.21l-0.24,-0.18l-0.4,-0.24l-0.46,-0.07l-7,0.01l-7.09,0.03l-6.83,0.08l-6.86,-0.12l-6.89,-0.35l-6.93,-0.55l19.58,-0.62l11.4,0.16l1.33,0.23l0.9,-0.29l0,0l0.26,-0.28l2.3,0.5l2.53,0.16l0.68,-0.46z" fill="#2c5692"/>
  <path id="svg_195" d="m78.36,405.22l-2.27,-0.95l-2.17,-1.13l0,0l-3.9,-2.69l8.34,4.77z" fill="#2c5692"/>
  <path id="svg_196" d="m225.28,401.63l0.95,0.8l0.64,0.13l-0.02,0.05l-0.01,0.53l0.33,0.65l-0.02,1.42l0.03,0.33l-0.35,0.96l-0.18,0.25l-0.14,-0.26l-1.23,-4.86z" fill="#2c5692"/>
  <path id="svg_197" d="m260.2,401.72l0.14,0.13l0.52,-0.07l1.13,0.61l1.79,1.27l1.65,1.47l4.42,4.5l3.79,3.47l2.98,2.32l3.09,2.01l3.2,1.7l3.32,1.38l0,0l4.27,1.28l3.01,0.57l0,0l0,0l3.11,0.27l3.16,-0.03l3.19,-0.35l3.24,-0.65l4.8,-1.44l4.26,-1.8l3.71,-2.17l3.17,-2.54l12.22,-11.65l2.51,0.37l2.05,0.72l1.66,1.1l1.16,1.4l0.49,1l0.29,1.08l0.05,2.36l-0.65,2.56l-1.34,2.66l-3.85,4.4l-1.05,1.18l-0.96,0.69l-1.37,0.82l-1.08,1.05l-0.4,0.57l-5.55,4.38l-6.63,3.39l-4.23,1.82l-5.88,1.72l-4.65,0.74l-2.33,0.4l-2.3,0.6l-2.89,0.01l-8.36,-0.65l-0.71,-0.03l-0.54,-0.25l0,0l-0.02,-0.02l-7.86,-2.54l0.01,0.2l-0.09,-0.26l-10.86,-5.98l-0.37,-0.12l-0.32,-0.34l-0.54,-0.69l-0.99,-0.38l-3.75,-3.04l-6.01,-5.99l-2.46,-3.02l0.06,-0.68l-0.14,-0.3l0,0l-0.58,0.25l-0.22,-1.23l-0.06,-1.96l0.26,-1.9l0.82,-2.38l1.37,-2.26l2.81,-1.73l0.35,0.3l0.44,0l0.54,-0.3z" fill="#000000"/>
  <path id="svg_198" d="m227.17,403.79l0.14,0.08l-0.16,1.34l0.02,-1.42z" fill="#000000"/>
  <path id="svg_199" d="m82.28,406.95l-0.55,-0.11l-1.42,-0.52l-1.34,-0.81l1.32,0.3l1.18,0.55l0.81,0.59z" fill="#2c5692"/>
  <path id="svg_200" d="m93.79,411.19l-5.16,-1.44l-4.86,-2.03l0,0l-1.49,-0.77l11.51,4.24z" fill="#2c5692"/>
  <path id="svg_201" d="m108.99,413.75l-3.45,-0.14l-3.41,-0.4l-3.87,-0.76l-3.81,-1.1l14.54,2.4z" fill="#2c5692"/>
  <path id="svg_202" d="m224.56,412.05l-1.29,1.32l-0.63,0.32l-0.62,0.09l0,0l0,0l-0.58,-0.13l3.12,-1.6z" fill="#2c5692"/>
  <path id="svg_203" d="m254.55,413.91l-0.61,-0.63l-0.05,-0.1l0.58,-0.25l0,0l0.14,0.3l-0.06,0.68z" fill="#2c5692"/>
  <path id="svg_204" d="m390.3,414.43l-4.81,0.4l-3.52,-0.08l-3.53,-0.39l3.36,-0.31l3.36,-0.06l0,0l5.14,0.44z" fill="#42acde"/>
  <path id="svg_205" d="m336.74,419.65l3.85,-4.4l0.5,-0.31l-4.35,4.71z" fill="#2c5692"/>
  <path id="svg_206" d="m263.02,422.92l-1.76,-1.26l-1.6,-1.43l0,0l0,0l-1.4,-1.57l-1.25,-1.73l6.01,5.99z" fill="#2c5692"/>
  <path id="svg_207" d="m334.73,421.52l-0.95,1.05l-1.9,1.39l0.4,-0.57l1.08,-1.05l1.37,-0.82z" fill="#2c5692"/>
  <path id="svg_208" d="m268.3,427.03l-0.97,-0.48l-0.56,-0.59l0.99,0.38l0.54,0.69z" fill="#2c5692"/>
  <path id="svg_209" d="m279.85,433.47l-3.04,-1.08l-2.87,-1.39l0,0l-2.55,-1.61l-2.4,-1.9l10.86,5.98z" fill="#2c5692"/>
  <path id="svg_210" d="m326.33,428.34l-2.79,1.77l-2.86,1.57l-2.94,1.37l-3,1.17l0,0l-3.47,1.08l-3.56,0.83l-3.66,0.57l-3.74,0.31l2.3,-0.6l2.33,-0.4l4.65,-0.74l5.88,-1.72l4.23,-1.82l6.63,-3.39z" fill="#2c5692"/>
  <path id="svg_211" d="m287.79,436.07l-1.7,-0.27l0,0l-3.13,-0.88l-3.03,-1.39l7.86,2.54z" fill="#2c5692"/>
  <path id="svg_212" d="m297.42,437.02l-8.36,-0.65l8.36,0.65z" fill="#2c5692"/>
 </g>
</svg>